<svg id="svg" version="1.1" xmlns="http://www.w3.org/2000/svg" xmlns:xlink="http://www.w3.org/1999/xlink" width="400" height="224.89019033674964" viewBox="0, 0, 400,224.89019033674964"><g id="svgg"><path id="path0" d="M131.834 12.509 C 131.029 12.817,129.966 13.209,129.471 13.381 C 128.976 13.553,127.863 13.962,126.997 14.290 C 126.130 14.617,124.966 15.029,124.409 15.204 C 123.853 15.379,123.195 15.624,122.947 15.748 C 122.700 15.871,121.940 16.160,121.260 16.390 C 119.134 17.107,109.933 20.476,109.224 20.797 C 108.853 20.965,108.391 21.138,108.198 21.181 C 107.914 21.245,108.244 22.340,109.951 26.997 C 111.108 30.152,112.212 33.240,112.405 33.858 C 112.599 34.477,112.835 35.084,112.931 35.208 C 113.027 35.332,113.261 35.939,113.451 36.558 C 113.641 37.177,114.063 38.391,114.388 39.258 C 114.714 40.124,115.163 41.339,115.386 41.957 C 118.676 51.082,121.569 58.975,121.830 59.539 C 122.012 59.929,122.160 60.369,122.160 60.517 C 122.160 60.666,122.306 61.106,122.485 61.496 C 122.664 61.886,123.024 62.812,123.285 63.555 C 123.545 64.297,123.900 65.309,124.073 65.804 C 125.290 69.279,126.614 72.545,126.789 72.502 C 126.903 72.473,127.705 72.188,128.571 71.869 C 129.438 71.549,130.652 71.106,131.271 70.884 C 131.890 70.662,135.382 69.388,139.033 68.054 C 142.683 66.720,146.175 65.444,146.794 65.220 C 147.413 64.996,148.628 64.548,149.494 64.225 C 150.360 63.902,151.372 63.528,151.744 63.394 C 152.115 63.260,152.443 63.132,152.473 63.111 C 152.502 63.089,152.387 62.522,152.217 61.851 C 152.046 61.179,151.791 59.921,151.649 59.055 C 151.507 58.189,151.247 56.822,151.071 56.018 C 150.895 55.214,150.691 54.176,150.618 53.712 C 150.542 53.225,150.359 52.868,150.186 52.868 C 149.891 52.868,143.402 55.152,142.520 55.566 C 142.032 55.795,140.020 56.500,138.279 57.052 C 136.924 57.482,137.332 58.165,134.877 51.373 C 132.581 45.022,132.597 45.195,134.256 44.778 C 134.838 44.631,135.417 44.428,135.543 44.326 C 135.668 44.224,136.277 43.983,136.895 43.790 C 137.514 43.597,138.729 43.174,139.595 42.851 C 140.461 42.528,141.752 42.058,142.463 41.808 C 143.175 41.558,143.757 41.324,143.757 41.288 C 143.757 41.214,142.770 38.515,142.315 37.345 C 142.146 36.912,141.732 35.799,141.395 34.871 C 140.628 32.761,140.111 31.496,140.016 31.496 C 139.975 31.496,137.542 32.368,134.609 33.433 C 129.829 35.170,129.249 35.333,129.010 35.006 C 128.319 34.060,125.739 26.246,126.030 25.978 C 126.190 25.831,127.435 25.320,128.796 24.844 C 130.157 24.369,131.524 23.849,131.834 23.690 C 132.143 23.530,132.548 23.396,132.733 23.391 C 132.919 23.386,133.476 23.186,133.971 22.947 C 134.466 22.708,134.995 22.509,135.147 22.505 C 136.972 22.454,137.406 21.493,136.439 19.640 C 136.259 19.294,136.110 18.874,136.109 18.707 C 136.109 18.540,135.959 18.084,135.778 17.694 C 135.596 17.304,135.054 15.876,134.572 14.521 C 133.558 11.667,133.719 11.786,131.834 12.509 M100.225 23.875 C 99.606 24.113,98.898 24.406,98.650 24.527 C 98.403 24.648,97.745 24.893,97.188 25.070 C 96.631 25.247,95.467 25.658,94.601 25.984 C 92.457 26.789,90.988 27.320,89.651 27.775 C 89.033 27.985,88.324 28.250,88.076 28.363 C 87.829 28.476,85.399 29.368,82.677 30.346 C 78.564 31.824,76.740 32.512,76.318 32.745 C 76.266 32.774,79.871 42.782,81.380 46.794 C 81.682 47.598,82.085 48.763,82.275 49.381 C 82.465 50.000,82.696 50.607,82.788 50.731 C 82.880 50.855,83.077 51.361,83.226 51.856 C 83.374 52.351,83.588 52.958,83.701 53.206 C 83.814 53.453,85.187 57.199,86.753 61.530 C 88.319 65.861,89.844 70.062,90.142 70.866 C 91.273 73.918,91.601 74.833,91.915 75.816 C 92.092 76.372,92.339 77.030,92.463 77.278 C 92.587 77.525,92.876 78.285,93.106 78.965 C 94.855 84.146,94.770 84.025,96.302 83.501 C 99.073 82.554,113.326 77.349,113.982 77.045 C 114.372 76.864,114.828 76.712,114.995 76.708 C 115.162 76.704,115.703 76.505,116.198 76.265 C 116.693 76.026,117.230 75.827,117.391 75.823 C 117.553 75.819,118.113 75.620,118.637 75.382 C 119.160 75.144,119.865 74.879,120.204 74.794 C 120.878 74.625,120.873 74.716,120.348 72.103 C 120.224 71.485,119.875 69.663,119.573 68.054 C 118.846 64.189,118.805 64.060,118.362 64.237 C 117.599 64.540,110.517 67.131,109.336 67.538 C 108.656 67.773,107.795 68.104,107.424 68.273 C 105.467 69.167,105.567 69.244,104.408 65.981 C 103.934 64.646,103.017 62.113,102.372 60.352 C 101.008 56.631,100.999 56.787,102.593 56.218 C 103.270 55.976,104.331 55.593,104.949 55.365 C 105.568 55.138,107.388 54.478,108.993 53.898 C 110.598 53.318,111.952 52.802,112.003 52.751 C 112.054 52.701,111.715 51.618,111.250 50.345 C 109.320 45.060,109.083 44.399,108.867 43.701 C 108.742 43.299,108.550 42.970,108.439 42.970 C 108.228 42.970,101.008 45.529,100.225 45.881 C 99.332 46.283,97.559 46.790,97.445 46.677 C 97.323 46.554,96.939 45.552,96.370 43.870 C 96.181 43.313,95.936 42.655,95.825 42.407 C 95.714 42.160,95.273 40.977,94.846 39.779 C 93.960 37.296,93.903 37.440,96.063 36.684 C 96.867 36.403,98.183 35.924,98.988 35.622 C 99.792 35.319,101.159 34.812,102.025 34.495 C 103.304 34.028,105.219 33.294,105.448 33.184 C 105.523 33.148,104.716 30.687,104.048 28.909 C 103.723 28.043,103.302 26.879,103.113 26.322 C 102.924 25.765,102.627 24.990,102.453 24.600 C 102.279 24.211,102.137 23.780,102.137 23.644 C 102.137 23.299,101.537 23.371,100.225 23.875 M239.111 30.152 C 238.747 30.364,234.846 31.823,232.396 32.663 C 231.715 32.896,230.956 33.184,230.709 33.302 C 230.461 33.420,228.690 34.079,226.772 34.766 C 224.854 35.453,222.966 36.163,222.576 36.343 C 222.186 36.523,221.768 36.670,221.648 36.670 C 221.528 36.670,220.986 36.859,220.445 37.090 C 219.903 37.321,218.271 37.939,216.818 38.464 C 213.893 39.520,213.940 39.456,214.756 41.282 C 215.055 41.951,217.748 49.227,218.337 50.956 C 218.505 51.451,218.890 52.514,219.193 53.318 C 219.495 54.123,220.172 55.945,220.697 57.368 C 221.223 58.791,221.898 60.613,222.197 61.417 C 222.497 62.222,222.926 63.386,223.150 64.004 C 223.375 64.623,223.634 65.307,223.727 65.523 C 223.956 66.060,223.463 66.033,222.610 65.463 C 216.437 61.338,201.377 66.259,196.247 74.077 C 192.723 79.448,192.865 90.006,196.558 97.188 C 196.717 97.497,196.848 97.887,196.849 98.054 C 196.850 98.221,196.998 98.676,197.179 99.066 C 197.360 99.456,198.134 101.496,198.899 103.600 C 199.664 105.703,200.516 108.031,200.791 108.774 C 201.067 109.516,201.928 111.845,202.704 113.948 C 203.480 116.052,204.340 118.380,204.616 119.123 C 204.892 119.865,205.731 122.143,206.481 124.184 C 209.671 132.864,210.655 135.072,212.527 137.746 C 217.246 144.487,223.249 147.035,231.156 145.652 C 232.268 145.457,233.281 145.222,233.406 145.129 C 233.531 145.037,234.089 144.830,234.646 144.671 C 240.730 142.930,246.012 138.312,248.039 132.958 C 248.988 130.453,248.917 130.441,250.417 133.369 C 252.149 136.749,252.253 136.887,252.843 136.571 C 253.097 136.436,254.447 135.909,255.842 135.401 C 257.238 134.894,259.038 134.233,259.843 133.933 C 260.647 133.633,261.811 133.204,262.430 132.980 C 263.430 132.616,265.966 131.675,270.079 130.143 C 270.821 129.866,272.492 129.257,273.791 128.790 C 275.090 128.323,276.242 127.862,276.351 127.765 C 276.514 127.621,275.306 124.102,274.465 122.272 C 274.351 122.025,273.896 120.861,273.453 119.685 C 273.011 118.510,272.552 117.345,272.434 117.098 C 272.316 116.850,271.870 115.686,271.442 114.511 C 271.014 113.335,270.197 111.159,269.626 109.674 C 269.055 108.189,268.356 106.316,268.072 105.512 C 267.058 102.632,265.899 99.538,265.573 98.841 C 265.391 98.451,265.242 98.011,265.242 97.863 C 265.242 97.715,265.094 97.274,264.913 96.884 C 264.732 96.494,263.960 94.454,263.197 92.351 C 262.434 90.247,261.585 87.919,261.309 87.177 C 261.033 86.434,260.173 84.106,259.397 82.002 C 258.621 79.899,257.760 77.570,257.484 76.828 C 257.209 76.085,256.357 73.757,255.592 71.654 C 254.827 69.550,254.053 67.510,253.872 67.120 C 253.691 66.730,253.543 66.275,253.542 66.108 C 253.541 65.941,253.410 65.551,253.251 65.242 C 253.091 64.933,252.570 63.566,252.093 62.205 C 251.616 60.844,251.153 59.629,251.065 59.505 C 250.978 59.381,250.833 58.976,250.745 58.605 C 250.656 58.234,250.444 57.627,250.273 57.255 C 250.102 56.884,249.152 54.353,248.162 51.631 C 247.171 48.909,245.644 44.758,244.767 42.407 C 243.891 40.056,243.033 37.728,242.861 37.233 C 242.690 36.738,242.301 35.675,241.998 34.871 C 241.695 34.066,241.163 32.624,240.817 31.665 C 240.178 29.897,239.928 29.675,239.111 30.152 M297.075 33.775 C 296.209 33.884,295.247 34.068,294.938 34.184 C 294.629 34.300,293.784 34.511,293.061 34.653 C 292.337 34.795,290.699 35.251,289.420 35.665 C 270.615 41.760,261.324 53.725,264.513 67.742 C 264.972 69.759,266.902 75.649,267.269 76.153 C 267.359 76.277,267.554 76.783,267.703 77.278 C 267.851 77.773,268.067 78.380,268.182 78.628 C 268.298 78.875,268.811 80.242,269.324 81.665 C 270.798 85.754,271.037 86.410,271.616 87.964 C 271.916 88.768,272.591 90.591,273.116 92.013 C 273.641 93.436,274.297 95.208,274.574 95.951 C 274.851 96.693,275.502 98.465,276.021 99.888 C 281.996 116.282,292.938 121.839,309.425 116.851 C 325.740 111.915,334.436 105.534,337.393 96.329 C 338.850 91.791,338.036 83.889,335.519 78.144 C 335.348 77.754,335.208 77.333,335.208 77.210 C 335.208 76.983,333.515 77.394,332.621 77.838 C 332.373 77.961,330.602 78.622,328.684 79.307 C 326.766 79.991,324.878 80.701,324.488 80.883 C 324.098 81.066,323.658 81.215,323.510 81.215 C 323.361 81.215,322.921 81.364,322.531 81.546 C 322.141 81.728,320.051 82.523,317.885 83.312 C 315.720 84.101,313.074 85.071,312.006 85.468 L 310.063 86.188 310.608 87.695 C 311.996 91.534,312.272 92.428,312.402 93.502 C 312.843 97.150,308.399 99.715,305.771 97.330 C 304.836 96.481,304.247 95.190,302.116 89.314 C 301.376 87.272,300.622 85.283,300.441 84.893 C 300.260 84.503,300.112 84.068,300.112 83.926 C 300.112 83.783,299.952 83.356,299.755 82.975 C 299.280 82.058,299.456 81.911,302.137 80.971 C 303.313 80.558,304.528 80.091,304.837 79.932 C 305.146 79.773,305.536 79.642,305.703 79.641 C 305.870 79.641,306.325 79.490,306.715 79.307 C 307.319 79.024,313.078 76.899,315.973 75.892 C 316.468 75.719,317.075 75.482,317.323 75.364 C 317.570 75.246,319.494 74.526,321.597 73.763 C 323.701 73.000,326.029 72.150,326.772 71.875 C 327.514 71.599,329.033 71.043,330.146 70.639 C 331.260 70.235,332.248 69.837,332.342 69.753 C 332.521 69.595,332.236 68.597,331.313 66.142 C 331.011 65.337,330.334 63.515,329.809 62.092 C 329.284 60.669,328.628 58.898,328.352 58.155 C 328.075 57.413,327.222 55.084,326.455 52.981 C 320.746 37.323,312.384 31.856,297.075 33.775 M330.563 36.614 C 330.624 36.831,330.743 37.261,330.828 37.570 C 330.914 37.880,331.122 38.436,331.290 38.808 C 331.459 39.179,332.159 41.052,332.846 42.970 C 333.533 44.888,334.191 46.659,334.308 46.907 C 334.425 47.154,334.662 47.762,334.835 48.256 C 336.509 53.052,337.351 55.178,337.618 55.280 C 337.792 55.347,340.637 55.287,343.939 55.147 C 349.461 54.913,373.881 54.022,375.309 54.002 C 376.160 53.990,376.074 54.200,374.847 55.133 C 374.266 55.574,372.745 56.739,371.466 57.720 C 370.188 58.702,368.854 59.708,368.503 59.955 C 363.754 63.300,345.574 77.552,345.697 77.834 C 345.860 78.209,346.341 79.494,347.807 83.465 C 348.332 84.888,349.009 86.710,349.311 87.514 C 349.613 88.318,350.002 89.381,350.174 89.876 C 351.344 93.240,352.514 96.170,352.713 96.236 C 352.842 96.279,353.486 95.827,354.145 95.232 C 355.169 94.308,367.356 83.795,370.526 81.102 C 372.491 79.433,382.564 70.761,382.677 70.641 C 382.739 70.576,383.498 69.916,384.364 69.176 C 385.231 68.435,385.990 67.775,386.052 67.708 C 386.114 67.642,387.936 66.074,390.101 64.223 C 392.267 62.372,394.148 60.756,394.282 60.631 C 394.416 60.507,395.757 59.347,397.263 58.054 C 399.367 56.247,400.000 55.577,400.000 55.157 C 400.000 54.652,399.149 51.999,398.652 50.956 C 398.534 50.709,398.297 50.101,398.125 49.606 C 397.217 46.990,395.902 43.446,395.609 42.823 C 395.426 42.433,395.276 42.010,395.276 41.882 C 395.276 41.754,395.156 41.364,395.010 41.016 C 394.864 40.667,394.428 39.522,394.041 38.470 L 393.339 36.558 375.466 36.422 C 338.124 36.138,330.440 36.171,330.563 36.614 M61.542 38.637 C 59.543 38.841,52.689 41.134,41.395 45.377 C 40.591 45.679,39.426 46.084,38.808 46.276 C 38.189 46.468,37.657 46.647,37.626 46.673 C 37.595 46.698,39.003 50.659,40.754 55.474 C 42.505 60.290,44.124 64.786,44.353 65.467 C 44.582 66.147,44.868 66.907,44.988 67.154 C 45.109 67.402,45.347 68.009,45.519 68.504 C 45.836 69.419,51.360 84.619,52.346 87.289 C 52.643 88.093,53.028 89.156,53.200 89.651 C 53.373 90.146,53.780 91.260,54.106 92.126 C 54.432 92.992,54.854 94.156,55.043 94.713 C 55.232 95.270,55.528 96.045,55.702 96.434 C 55.876 96.824,56.020 97.229,56.021 97.334 C 56.034 98.030,56.420 98.121,57.506 97.685 C 58.110 97.442,59.314 96.983,60.180 96.666 C 61.046 96.348,62.413 95.839,63.217 95.535 C 64.021 95.230,65.920 94.542,67.435 94.006 C 70.385 92.962,70.396 92.951,69.877 91.564 C 68.826 88.756,63.733 74.778,63.346 73.638 C 63.086 72.873,62.799 72.173,62.708 72.082 C 62.209 71.583,62.588 71.110,63.758 70.770 C 66.745 69.901,67.142 70.347,69.754 77.503 C 72.638 85.406,74.368 89.584,75.223 90.711 C 75.495 91.070,75.637 91.050,77.296 90.416 C 78.276 90.042,79.549 89.589,80.125 89.410 C 80.702 89.231,81.461 88.934,81.813 88.750 C 82.164 88.567,82.589 88.416,82.756 88.415 C 82.923 88.415,83.378 88.264,83.768 88.081 C 84.158 87.897,85.034 87.555,85.714 87.320 C 87.977 86.540,89.201 86.100,89.274 86.040 C 89.314 86.008,89.185 85.668,88.988 85.286 C 88.790 84.904,88.325 83.755,87.954 82.734 C 87.584 81.713,87.182 80.675,87.061 80.427 C 86.940 80.180,86.448 78.864,85.969 77.503 C 84.450 73.194,83.466 70.559,83.008 69.575 C 82.764 69.050,82.565 68.558,82.565 68.481 C 82.565 67.898,80.257 64.588,79.346 63.863 C 78.307 63.037,75.840 62.092,74.723 62.092 C 74.078 62.092,74.107 61.982,75.036 60.897 C 77.848 57.612,77.849 53.630,75.040 46.682 C 72.532 40.477,68.286 37.946,61.542 38.637 M32.526 48.790 C 32.460 48.898,32.099 49.047,31.726 49.122 C 31.352 49.196,30.596 49.463,30.046 49.713 C 29.496 49.964,28.929 50.169,28.787 50.169 C 28.644 50.169,28.208 50.319,27.818 50.502 C 27.428 50.685,26.552 51.025,25.872 51.258 C 24.541 51.712,12.314 56.168,9.899 57.079 C 9.094 57.382,8.071 57.740,7.625 57.874 L 6.814 58.118 7.427 59.824 C 8.413 62.566,13.736 77.141,14.337 78.740 C 14.639 79.544,15.029 80.658,15.204 81.215 C 15.379 81.772,15.624 82.430,15.748 82.677 C 15.871 82.925,16.161 83.684,16.391 84.364 C 16.621 85.045,17.902 88.588,19.237 92.238 C 20.572 95.889,21.847 99.381,22.071 100.000 C 22.294 100.619,22.743 101.834,23.068 102.700 C 23.392 103.566,23.843 104.831,24.069 105.512 C 24.779 107.650,25.574 109.451,25.783 109.397 C 25.894 109.368,26.693 109.084,27.559 108.764 C 28.425 108.445,29.640 108.001,30.259 107.779 C 30.877 107.556,33.155 106.738,35.321 105.960 C 40.084 104.248,39.747 104.543,39.074 102.671 C 38.768 101.821,38.064 99.859,37.509 98.313 C 34.733 90.573,32.811 85.329,32.596 84.906 C 31.967 83.665,32.203 82.986,33.408 82.567 C 34.027 82.351,35.849 81.699,37.458 81.117 C 39.066 80.535,40.965 79.854,41.676 79.604 C 43.252 79.049,43.257 79.385,41.605 74.904 C 40.854 72.869,40.131 70.815,39.998 70.340 C 39.649 69.097,39.716 69.087,33.867 71.212 C 30.926 72.281,28.442 73.070,28.347 72.967 C 28.148 72.751,24.747 63.378,24.747 63.047 C 24.747 62.927,26.240 62.299,28.065 61.651 C 29.890 61.004,31.991 60.244,32.733 59.963 C 33.476 59.682,34.539 59.286,35.096 59.083 C 36.847 58.444,36.838 58.740,35.240 54.310 C 33.153 48.530,32.947 48.110,32.526 48.790 M59.902 50.461 C 61.867 52.707,63.557 59.523,62.428 60.652 C 61.826 61.254,60.194 62.079,59.589 62.087 C 59.162 62.093,59.258 62.318,56.924 55.840 C 54.800 49.942,54.885 50.515,56.074 50.085 C 58.113 49.347,59.004 49.434,59.902 50.461 M296.521 52.925 C 297.635 53.677,298.916 56.089,299.895 59.280 C 300.047 59.775,300.249 60.281,300.343 60.405 C 300.438 60.529,300.621 60.984,300.750 61.417 C 300.880 61.850,301.240 62.880,301.551 63.704 C 302.159 65.317,302.114 65.489,301.012 65.791 C 300.703 65.876,300.247 66.040,300.000 66.156 C 299.008 66.621,294.421 68.174,294.324 68.077 C 294.179 67.932,292.280 62.809,291.188 59.618 C 290.388 57.279,290.381 55.455,291.166 54.269 C 292.311 52.539,294.964 51.873,296.521 52.925 M227.534 80.178 C 229.128 80.844,229.893 82.157,231.870 87.627 C 232.541 89.483,233.238 91.320,233.418 91.710 C 233.598 92.100,233.746 92.540,233.746 92.688 C 233.746 92.837,233.894 93.277,234.075 93.667 C 234.255 94.057,235.029 96.097,235.794 98.200 C 236.560 100.304,237.412 102.632,237.688 103.375 C 238.760 106.254,240.126 109.949,240.516 111.024 C 240.741 111.642,241.190 112.857,241.515 113.723 C 243.018 117.734,242.782 120.034,240.728 121.394 C 237.602 123.463,234.802 121.481,233.070 115.973 C 232.915 115.478,232.713 114.972,232.623 114.848 C 232.532 114.724,232.386 114.319,232.297 113.948 C 232.209 113.577,231.996 112.970,231.825 112.598 C 231.553 112.010,229.309 105.928,228.422 103.375 C 228.250 102.880,228.013 102.272,227.895 102.025 C 227.777 101.777,227.058 99.854,226.298 97.750 C 225.537 95.647,224.668 93.268,224.366 92.463 C 221.768 85.548,221.438 83.975,222.248 82.387 C 223.186 80.550,225.805 79.455,227.534 80.178 M160.855 84.228 C 153.388 85.248,144.578 88.483,138.671 92.374 C 127.529 99.711,123.757 109.875,127.783 121.710 C 128.793 124.675,129.128 125.610,129.360 126.097 C 129.478 126.344,130.180 128.217,130.920 130.259 C 131.661 132.300,133.185 136.451,134.308 139.483 C 135.431 142.514,136.948 146.614,137.679 148.594 C 139.620 153.851,139.832 154.365,140.855 156.291 C 147.539 168.867,159.455 172.034,176.940 165.881 C 193.006 160.228,201.013 151.598,201.012 139.933 C 201.012 134.993,200.692 133.691,197.150 124.184 C 196.850 123.380,196.421 122.216,196.197 121.597 C 195.835 120.603,195.375 119.362,193.360 113.948 C 193.084 113.206,192.236 110.877,191.475 108.774 C 190.714 106.670,189.996 104.747,189.878 104.499 C 189.760 104.252,189.503 103.594,189.308 103.037 C 189.112 102.480,188.755 101.468,188.514 100.787 C 185.398 91.974,179.271 86.192,171.091 84.345 C 169.502 83.986,163.154 83.913,160.855 84.228 M158.211 103.709 C 159.294 103.717,160.948 106.042,161.974 108.999 C 162.370 110.137,164.603 116.229,165.685 119.123 C 166.009 119.989,166.888 122.368,167.637 124.409 C 168.387 126.451,169.281 128.881,169.625 129.809 C 172.211 136.799,173.128 139.306,173.492 140.382 C 173.722 141.063,174.017 141.806,174.147 142.034 C 175.572 144.534,174.008 147.926,171.196 148.433 C 168.142 148.984,166.882 147.641,164.627 141.435 C 164.125 140.052,163.488 138.313,163.212 137.570 C 162.070 134.501,160.767 130.975,160.384 129.921 C 160.159 129.303,159.730 128.138,159.430 127.334 C 159.130 126.530,158.454 124.708,157.926 123.285 C 157.399 121.862,156.742 120.090,156.467 119.348 C 152.343 108.227,152.137 107.354,153.217 105.606 C 153.966 104.395,156.122 103.360,157.368 103.614 C 157.615 103.665,157.995 103.707,158.211 103.709 M93.926 108.662 C 84.338 110.045,72.727 115.362,67.322 120.845 C 59.867 128.406,58.865 138.887,64.433 151.069 C 64.603 151.440,64.810 151.997,64.894 152.306 C 64.977 152.615,65.138 153.071,65.253 153.318 C 65.367 153.566,65.879 154.933,66.391 156.355 C 66.903 157.778,67.567 159.601,67.867 160.405 C 68.166 161.209,68.596 162.373,68.820 162.992 C 69.204 164.048,70.513 167.588,71.648 170.641 C 71.924 171.384,72.520 173.003,72.972 174.241 C 73.425 175.478,73.892 176.693,74.010 176.940 C 74.129 177.188,74.483 177.988,74.799 178.719 C 79.545 189.722,87.366 194.610,98.253 193.376 C 102.040 192.947,107.021 191.739,109.449 190.661 C 109.820 190.496,110.427 190.285,110.799 190.193 C 111.380 190.049,112.114 189.758,114.398 188.766 C 125.653 183.879,131.120 178.314,132.535 170.308 L 133.024 167.543 132.533 164.143 C 132.018 160.578,131.366 158.111,129.851 153.993 C 128.927 151.483,128.188 149.552,128.101 149.422 C 128.075 149.383,126.044 150.082,123.588 150.975 C 121.132 151.868,118.718 152.738,118.223 152.908 C 117.728 153.079,117.120 153.316,116.873 153.437 C 116.625 153.557,115.866 153.844,115.186 154.074 C 114.065 154.454,111.270 155.481,107.312 156.968 C 106.507 157.270,105.529 157.624,105.138 157.755 L 104.427 157.993 104.730 158.918 C 104.896 159.426,105.279 160.501,105.580 161.305 C 105.881 162.109,106.429 163.581,106.799 164.575 C 108.703 169.702,108.429 171.856,105.759 172.748 C 103.455 173.518,101.956 172.337,100.556 168.649 C 100.174 167.641,99.727 166.513,99.562 166.142 C 99.397 165.771,99.194 165.214,99.111 164.904 C 99.028 164.595,98.864 164.139,98.748 163.892 C 98.632 163.645,98.119 162.278,97.609 160.855 C 97.098 159.432,96.455 157.660,96.179 156.918 C 95.904 156.175,95.043 153.847,94.267 151.744 C 93.491 149.640,92.611 147.261,92.312 146.457 C 92.013 145.652,91.584 144.488,91.360 143.870 C 90.946 142.730,89.480 138.783,88.478 136.108 C 86.359 130.453,87.086 128.009,90.886 128.009 C 92.930 128.009,93.895 129.412,96.068 135.546 C 97.369 139.218,97.608 139.638,98.239 139.368 C 98.465 139.272,99.258 138.971,100.000 138.700 C 100.742 138.429,103.071 137.569,105.174 136.789 C 107.278 136.009,109.404 135.231,109.899 135.059 C 110.394 134.887,111.001 134.650,111.249 134.532 C 111.684 134.325,118.184 131.944,120.472 131.154 C 121.714 130.725,121.835 130.295,121.137 128.796 C 120.964 128.425,120.460 127.109,120.019 125.872 C 116.355 115.613,110.911 110.236,102.587 108.656 C 101.384 108.427,95.525 108.431,93.926 108.662 M47.132 141.983 C 46.142 142.860,44.124 144.605,42.647 145.861 C 41.171 147.117,39.037 148.954,37.905 149.944 C 36.774 150.934,35.603 151.949,35.303 152.200 C 35.003 152.450,33.999 153.314,33.071 154.118 C 29.902 156.865,23.291 162.559,17.548 167.486 C 14.393 170.193,11.052 173.078,10.124 173.897 C 9.196 174.717,8.072 175.686,7.627 176.051 C 5.890 177.476,1.684 181.164,1.626 181.313 C 1.571 181.455,2.190 183.225,3.756 187.402 C 4.057 188.206,4.444 189.269,4.615 189.764 C 4.787 190.259,5.446 192.030,6.080 193.701 C 6.714 195.371,7.368 197.143,7.533 197.638 C 7.699 198.133,7.991 198.905,8.183 199.355 L 8.533 200.172 17.596 200.306 C 22.581 200.380,36.716 200.499,49.008 200.571 L 71.358 200.701 71.199 199.957 C 71.111 199.548,70.891 198.858,70.708 198.425 C 70.526 197.992,69.969 196.524,69.469 195.163 C 68.970 193.802,68.316 192.030,68.016 191.226 C 67.717 190.422,67.288 189.258,67.065 188.639 C 65.272 183.680,64.492 181.635,64.324 181.457 C 64.205 181.330,62.444 181.352,59.792 181.514 C 57.407 181.660,52.064 181.883,47.919 182.009 C 43.774 182.135,37.157 182.393,33.216 182.584 C 29.274 182.774,25.999 182.879,25.938 182.818 C 25.729 182.610,26.095 182.274,28.704 180.283 C 38.276 172.978,40.983 170.914,43.982 168.637 C 45.838 167.228,48.521 165.186,49.944 164.099 C 51.367 163.012,53.309 161.535,54.260 160.816 C 56.198 159.351,56.375 159.150,56.060 158.764 C 55.939 158.615,55.682 157.987,55.490 157.368 C 55.299 156.749,54.625 154.876,53.994 153.206 C 53.362 151.535,52.706 149.764,52.535 149.269 C 51.345 145.826,49.286 140.501,49.126 140.451 C 49.019 140.417,48.121 141.107,47.132 141.983 M235.096 156.843 C 225.268 158.236,218.597 168.544,218.597 182.340 C 218.597 193.510,222.840 202.313,229.922 205.839 C 235.926 208.828,245.301 208.398,251.294 204.861 L 252.531 204.130 252.589 192.279 L 252.647 180.427 245.896 180.427 L 239.145 180.427 239.145 182.447 L 239.145 184.467 243.251 184.528 L 247.357 184.589 247.416 193.005 C 247.482 202.537,247.616 201.828,245.569 202.797 C 241.078 204.921,235.161 204.303,231.115 201.287 C 222.490 194.855,221.839 172.483,230.034 164.116 C 234.822 159.227,241.877 159.108,246.927 163.832 L 248.348 165.161 250.046 163.744 C 252.085 162.042,252.064 162.331,250.271 160.654 C 246.812 157.418,241.122 155.989,235.096 156.843 M265.017 182.318 L 265.017 206.974 267.717 206.974 L 270.416 206.974 270.416 195.613 L 270.416 184.252 274.298 184.252 L 278.180 184.252 278.726 185.433 C 279.026 186.083,279.919 188.031,280.710 189.764 C 282.282 193.208,282.766 194.258,284.028 196.963 C 284.490 197.953,285.249 199.623,285.716 200.675 C 286.183 201.727,286.981 203.467,287.489 204.542 C 287.998 205.617,288.414 206.604,288.414 206.735 C 288.414 206.892,289.462 206.974,291.457 206.974 L 294.500 206.974 294.185 206.355 C 294.012 206.015,293.463 204.876,292.965 203.825 C 292.468 202.773,291.531 200.799,290.884 199.438 C 288.875 195.212,287.559 192.445,286.363 189.933 C 282.916 182.689,283.073 183.326,284.634 182.956 C 295.170 180.453,297.042 164.428,287.369 159.545 C 284.284 157.988,283.397 157.872,273.735 157.761 L 265.017 157.661 265.017 182.318 M312.826 157.987 C 312.774 158.141,312.580 158.825,312.396 159.505 C 312.212 160.186,311.796 161.603,311.473 162.655 C 311.150 163.706,310.695 165.225,310.462 166.029 C 310.229 166.834,309.571 169.061,308.999 170.979 C 308.428 172.897,307.811 175.022,307.628 175.703 C 307.445 176.384,307.203 177.143,307.091 177.390 C 306.978 177.638,306.673 178.600,306.413 179.528 C 305.874 181.454,305.295 183.441,304.612 185.714 C 304.352 186.580,303.947 187.947,303.713 188.751 C 303.479 189.556,303.023 191.074,302.700 192.126 C 302.376 193.178,301.920 194.696,301.686 195.501 C 301.451 196.305,301.044 197.672,300.779 198.538 C 300.515 199.404,300.110 200.771,299.880 201.575 C 299.351 203.418,298.596 205.988,298.418 206.547 C 298.290 206.951,298.434 206.974,301.068 206.974 L 303.853 206.974 304.475 204.781 C 304.817 203.574,305.285 201.980,305.516 201.237 C 305.746 200.495,306.202 198.976,306.529 197.863 C 306.856 196.749,307.214 195.610,307.325 195.332 L 307.527 194.826 316.619 194.826 L 325.712 194.826 326.063 196.232 C 326.256 197.005,326.620 198.346,326.872 199.213 C 327.706 202.082,328.491 204.823,328.773 205.849 L 329.050 206.862 331.921 206.925 L 334.793 206.988 334.628 206.475 C 334.537 206.193,334.276 205.278,334.048 204.443 C 333.820 203.608,333.421 202.191,333.162 201.294 C 332.903 200.397,332.503 199.004,332.275 198.200 C 330.837 193.149,330.011 190.311,329.718 189.426 C 329.534 188.870,329.066 187.250,328.679 185.827 C 328.292 184.404,327.890 182.987,327.785 182.677 C 327.680 182.368,327.276 181.001,326.888 179.640 C 325.971 176.428,325.361 174.338,324.852 172.666 C 324.626 171.924,324.370 170.965,324.284 170.536 C 324.198 170.107,324.043 169.601,323.940 169.411 C 323.838 169.222,323.389 167.700,322.943 166.029 C 322.497 164.359,322.044 162.790,321.935 162.542 C 321.827 162.295,321.694 161.890,321.639 161.642 C 321.585 161.395,321.303 160.408,321.013 159.449 L 320.485 157.705 316.703 157.705 C 313.879 157.705,312.898 157.776,312.826 157.987 M342.407 182.340 L 342.407 206.974 344.881 206.974 L 347.354 206.974 347.412 185.602 C 347.449 171.589,347.547 164.210,347.694 164.173 C 347.818 164.142,349.168 167.913,350.694 172.553 C 352.220 177.193,353.552 181.192,353.653 181.440 C 353.754 181.687,355.275 186.294,357.032 191.676 C 358.789 197.058,360.320 201.665,360.435 201.912 C 360.549 202.160,360.789 202.868,360.967 203.487 C 361.144 204.106,361.467 205.146,361.683 205.800 L 362.076 206.988 364.669 206.925 L 367.261 206.862 370.266 197.750 C 371.919 192.739,373.356 188.436,373.459 188.189 C 373.562 187.942,373.762 187.334,373.903 186.839 C 374.044 186.344,374.244 185.737,374.348 185.489 C 374.452 185.242,376.090 180.339,377.988 174.594 C 379.887 168.849,381.566 164.107,381.721 164.058 C 381.945 163.986,382.002 168.369,382.002 185.471 L 382.002 206.974 384.702 206.974 L 387.402 206.974 387.402 182.340 L 387.402 157.705 383.071 157.705 L 378.740 157.705 376.736 163.836 C 375.634 167.208,373.851 172.649,372.774 175.928 C 371.697 179.207,369.878 184.775,368.732 188.301 C 365.256 199.003,365.063 199.550,364.763 199.550 C 364.598 199.550,364.143 198.527,363.688 197.132 C 363.254 195.801,362.789 194.409,362.655 194.038 C 362.443 193.449,357.319 177.938,352.307 162.711 L 350.659 157.705 346.533 157.705 L 342.407 157.705 342.407 182.340 M281.665 161.990 C 290.025 163.820,290.800 176.342,282.751 179.528 C 281.374 180.072,281.161 180.090,275.929 180.090 L 270.529 180.090 270.470 170.939 C 270.415 162.368,270.436 161.781,270.807 161.669 C 271.528 161.452,280.404 161.714,281.665 161.990 M317.116 162.373 C 317.347 163.400,318.580 167.902,318.795 168.504 C 318.905 168.813,319.145 169.674,319.327 170.416 C 319.701 171.937,320.285 174.130,321.153 177.278 C 321.744 179.420,322.198 181.104,323.033 184.252 C 323.279 185.180,323.731 186.850,324.038 187.964 C 324.345 189.078,324.630 190.141,324.672 190.326 C 324.737 190.621,323.701 190.671,316.566 190.723 L 308.385 190.782 308.535 189.982 C 308.669 189.267,309.441 186.392,310.345 183.240 C 311.225 180.168,312.150 176.833,314.307 168.954 C 314.561 168.026,314.957 166.609,315.187 165.804 C 315.416 165.000,315.766 163.760,315.964 163.048 C 316.356 161.636,316.881 161.329,317.116 162.373 " stroke="none" fill="#040404" fill-rule="evenodd"></path><path id="path1" d="M0.000 112.486 L 0.000 224.972 200.000 224.972 L 400.000 224.972 400.000 140.453 L 400.000 55.934 399.272 56.595 C 398.872 56.958,398.493 57.310,398.429 57.376 C 398.365 57.443,395.832 59.617,392.801 62.208 C 389.769 64.799,387.238 66.980,387.177 67.056 C 387.115 67.131,384.837 69.104,382.115 71.440 C 379.393 73.776,376.355 76.388,375.366 77.244 C 374.376 78.101,371.085 80.936,368.054 83.543 C 362.150 88.622,360.912 89.691,355.928 94.007 C 353.811 95.841,352.641 96.713,352.494 96.566 C 352.320 96.392,349.720 89.570,348.701 86.614 C 348.594 86.305,347.797 84.133,346.930 81.787 C 345.841 78.842,345.422 77.440,345.576 77.254 C 345.699 77.107,348.433 74.976,351.653 72.520 C 354.872 70.064,359.160 66.789,361.181 65.242 C 363.202 63.695,367.253 60.607,370.182 58.380 L 375.509 54.331 374.425 54.255 C 373.829 54.213,371.265 54.289,368.729 54.424 C 362.488 54.757,343.657 55.426,340.082 55.443 L 337.193 55.456 336.907 54.668 C 336.749 54.235,336.002 52.210,335.247 50.169 C 334.491 48.127,333.019 44.128,331.976 41.282 L 330.078 36.108 357.109 36.054 C 371.976 36.024,386.251 36.075,388.831 36.167 L 393.523 36.333 394.522 39.033 C 395.072 40.517,395.704 42.238,395.927 42.857 C 397.303 46.672,399.384 52.277,399.659 52.911 C 399.943 53.564,399.983 50.367,399.991 26.828 L 400.000 0.000 200.000 0.000 L 0.000 0.000 0.000 112.486 M134.175 12.655 C 138.040 23.099,137.764 21.838,136.292 22.352 C 135.634 22.582,134.286 23.075,133.296 23.449 C 132.306 23.822,130.990 24.315,130.371 24.543 C 126.705 25.893,125.979 26.210,126.061 26.423 C 126.111 26.553,126.841 28.564,127.684 30.893 C 128.904 34.264,129.288 35.102,129.569 35.007 C 130.973 34.530,132.884 33.821,133.071 33.706 C 133.195 33.630,133.802 33.412,134.421 33.221 C 135.039 33.029,136.496 32.513,137.657 32.072 C 140.418 31.025,140.206 30.934,141.171 33.577 C 141.634 34.845,142.258 36.541,142.558 37.345 C 144.303 42.031,144.875 41.213,138.165 43.623 L 133.008 45.476 133.629 47.203 C 135.453 52.275,137.196 56.956,137.300 57.060 C 137.364 57.125,138.717 56.699,140.306 56.115 C 141.895 55.530,143.701 54.873,144.319 54.655 C 144.938 54.436,146.551 53.842,147.904 53.334 C 150.800 52.248,150.609 52.140,151.180 55.184 C 151.428 56.509,151.837 58.681,152.089 60.011 C 152.341 61.341,152.569 62.627,152.595 62.868 C 152.647 63.337,150.961 64.049,144.319 66.362 C 143.577 66.621,142.767 66.930,142.520 67.049 C 142.272 67.169,141.513 67.454,140.832 67.684 C 140.152 67.914,136.775 69.129,133.328 70.384 C 129.881 71.639,126.890 72.666,126.681 72.666 C 126.389 72.666,125.816 71.327,124.199 66.873 C 123.042 63.687,121.851 60.422,121.551 59.618 C 121.252 58.813,120.827 57.649,120.607 57.030 C 119.633 54.293,112.460 34.603,111.919 33.183 C 111.589 32.317,111.129 31.052,110.897 30.371 C 110.665 29.691,110.232 28.476,109.935 27.672 C 107.291 20.520,107.376 21.061,108.830 20.603 C 109.418 20.418,110.557 20.023,111.361 19.725 C 112.165 19.427,117.025 17.658,122.160 15.794 C 127.295 13.930,131.850 12.250,132.283 12.060 C 133.525 11.517,133.784 11.599,134.175 12.655 M103.996 28.067 C 104.957 30.757,105.740 33.060,105.737 33.183 C 105.734 33.307,104.239 33.949,102.416 34.611 C 98.452 36.048,97.139 36.535,95.541 37.155 L 94.338 37.622 95.955 42.039 C 97.061 45.059,97.672 46.443,97.887 46.414 C 98.059 46.390,98.858 46.125,99.663 45.825 C 104.749 43.926,108.083 42.745,108.355 42.745 C 108.696 42.745,108.975 43.315,109.891 45.894 C 111.014 49.057,111.631 50.730,111.946 51.470 C 112.560 52.910,112.671 52.833,107.030 54.862 C 100.985 57.036,101.351 56.822,101.755 57.952 C 102.890 61.126,105.583 68.515,105.623 68.565 C 105.667 68.621,107.312 68.037,112.598 66.092 C 116.670 64.594,118.835 63.867,118.932 63.964 C 118.989 64.021,119.223 65.015,119.452 66.173 C 119.681 67.331,120.144 69.677,120.482 71.386 C 121.200 75.014,121.403 74.633,118.110 75.834 C 116.687 76.354,114.865 77.024,114.061 77.323 C 113.256 77.623,112.092 78.048,111.474 78.267 C 110.855 78.486,106.960 79.900,102.817 81.409 C 98.675 82.918,95.145 84.124,94.972 84.090 C 94.720 84.039,91.421 75.436,89.427 69.629 C 89.257 69.134,88.852 68.020,88.527 67.154 C 88.202 66.288,87.755 65.073,87.534 64.454 C 87.166 63.422,82.274 49.997,80.730 45.782 C 80.368 44.792,79.930 43.577,79.758 43.082 C 79.586 42.587,79.199 41.524,78.898 40.720 C 75.673 32.099,75.773 32.498,76.772 32.197 C 77.508 31.975,79.413 31.297,82.115 30.295 C 83.708 29.704,98.626 24.251,100.450 23.593 C 102.263 22.938,102.085 22.713,103.996 28.067 M241.547 32.902 C 242.187 34.665,243.031 36.969,243.422 38.020 C 243.813 39.072,244.312 40.439,244.532 41.057 C 244.752 41.676,245.365 43.346,245.894 44.769 C 246.424 46.192,247.083 47.964,247.359 48.706 C 247.636 49.449,248.497 51.777,249.273 53.881 C 250.049 55.984,250.909 58.313,251.185 59.055 C 251.461 59.798,252.299 62.075,253.048 64.117 C 253.797 66.159,254.676 68.538,255.002 69.404 C 255.327 70.270,256.208 72.649,256.959 74.691 C 258.656 79.303,259.289 81.006,259.467 81.440 C 259.744 82.118,261.460 86.752,261.758 87.627 C 261.926 88.121,262.361 89.336,262.725 90.326 C 264.050 93.929,266.219 99.808,266.709 101.125 C 266.986 101.867,267.643 103.639,268.170 105.062 C 268.698 106.485,269.357 108.256,269.635 108.999 C 269.913 109.741,270.307 110.804,270.512 111.361 C 270.716 111.918,271.179 113.133,271.541 114.061 C 271.902 114.989,272.563 116.710,273.010 117.885 C 273.456 119.061,273.926 120.276,274.054 120.585 C 275.700 124.566,276.850 127.708,276.715 127.857 C 276.622 127.960,274.484 128.802,271.963 129.730 C 269.442 130.657,265.202 132.223,262.542 133.208 C 259.882 134.194,256.463 135.449,254.945 135.996 L 252.184 136.992 251.524 135.931 C 251.161 135.348,250.482 134.086,250.015 133.127 C 249.045 131.132,248.954 131.075,248.579 132.227 C 246.725 137.915,242.688 141.783,235.771 144.501 C 228.433 147.384,220.874 146.601,216.504 142.504 C 216.363 142.372,215.956 142.018,215.601 141.717 C 213.887 140.268,211.575 137.024,210.089 133.985 C 209.043 131.846,208.472 130.377,205.058 121.035 C 204.221 118.746,203.309 116.265,203.031 115.523 C 202.752 114.781,201.891 112.452,201.118 110.349 C 200.344 108.245,199.485 105.917,199.209 105.174 C 195.054 93.995,194.698 92.955,194.048 90.093 C 192.805 84.621,193.209 78.920,195.076 75.575 C 200.021 66.717,214.414 61.062,222.126 64.947 C 223.540 65.660,223.537 65.673,222.599 63.196 C 222.157 62.032,221.657 60.675,221.487 60.180 C 221.316 59.685,220.930 58.622,220.627 57.818 C 219.866 55.793,218.243 51.411,217.753 50.056 C 217.529 49.438,216.623 47.008,215.738 44.657 C 213.685 39.198,213.693 39.242,214.656 38.951 C 215.071 38.825,217.334 38.004,219.685 37.125 C 222.036 36.247,225.630 34.912,227.672 34.161 C 232.506 32.380,233.090 32.162,236.558 30.850 C 240.623 29.311,240.177 29.128,241.547 32.902 M305.804 33.301 C 317.307 34.619,322.309 40.119,328.718 58.493 C 328.955 59.173,329.246 59.933,329.363 60.180 C 329.799 61.100,332.566 68.751,332.670 69.323 C 332.790 69.988,333.094 69.839,327.334 71.930 C 325.787 72.491,323.915 73.178,323.172 73.456 C 322.430 73.734,320.658 74.390,319.235 74.916 C 317.812 75.441,316.040 76.096,315.298 76.372 C 314.556 76.648,311.721 77.694,308.999 78.697 C 306.277 79.700,303.072 80.887,301.878 81.335 L 299.707 82.150 300.394 83.989 C 301.632 87.303,302.070 88.493,303.021 91.114 C 305.467 97.859,306.896 99.080,310.241 97.285 C 312.831 95.895,312.810 94.254,310.114 87.064 C 309.729 86.037,309.803 85.976,312.711 84.932 C 314.010 84.466,315.681 83.858,316.423 83.582 C 317.165 83.306,319.494 82.443,321.597 81.665 C 323.701 80.887,326.029 80.025,326.772 79.750 C 327.514 79.475,329.539 78.720,331.271 78.072 C 333.003 77.424,334.623 76.847,334.871 76.789 C 335.420 76.661,337.092 81.318,337.915 85.264 C 340.607 98.181,333.479 108.092,316.815 114.602 C 294.123 123.466,282.440 118.788,275.015 97.863 C 274.730 97.058,274.232 95.692,273.908 94.826 C 273.585 93.960,273.137 92.745,272.912 92.126 C 272.522 91.052,271.156 87.356,270.084 84.477 C 269.808 83.735,268.945 81.406,268.166 79.303 C 267.388 77.199,266.506 74.820,266.205 74.016 C 262.045 62.883,263.076 54.743,269.606 47.147 C 276.933 38.625,294.298 31.983,305.804 33.301 M67.257 38.708 C 71.112 39.776,73.633 42.420,75.610 47.469 C 77.982 53.526,78.010 56.978,75.713 60.402 C 75.096 61.323,74.818 61.922,74.984 61.973 C 75.132 62.018,75.708 62.119,76.264 62.197 C 79.996 62.724,81.939 65.517,85.583 75.591 C 87.862 81.892,88.443 83.442,89.077 84.908 C 89.675 86.291,89.960 86.082,85.039 87.866 C 82.750 88.697,80.371 89.560,79.753 89.785 C 74.989 91.516,75.408 91.499,74.523 89.989 C 73.951 89.013,72.417 85.405,71.366 82.565 C 70.931 81.389,70.350 79.820,70.075 79.078 C 69.799 78.335,69.215 76.752,68.777 75.560 C 67.025 70.797,66.153 70.006,63.751 71.002 C 63.272 71.201,62.847 71.394,62.808 71.430 C 62.768 71.467,62.933 71.988,63.174 72.588 C 63.415 73.188,63.890 74.438,64.229 75.366 C 64.569 76.294,65.027 77.508,65.247 78.065 C 65.467 78.622,65.753 79.432,65.882 79.865 C 66.012 80.298,66.363 81.310,66.663 82.115 C 68.737 87.670,70.619 93.011,70.532 93.098 C 70.446 93.184,63.403 95.772,57.818 97.771 C 55.964 98.434,56.240 98.810,53.994 92.576 C 52.969 89.730,51.887 86.744,51.589 85.939 C 51.292 85.135,50.867 83.971,50.645 83.352 C 50.423 82.733,48.690 77.975,46.794 72.778 C 44.898 67.582,43.165 62.823,42.943 62.205 C 42.721 61.586,42.295 60.422,41.996 59.618 C 39.570 53.097,37.325 46.739,37.416 46.649 C 37.529 46.535,41.067 45.181,42.632 44.653 C 43.127 44.486,44.241 44.083,45.107 43.758 C 45.973 43.433,47.188 42.984,47.807 42.762 C 48.425 42.539,50.096 41.927,51.519 41.402 C 60.039 38.256,63.492 37.664,67.257 38.708 M33.446 48.763 C 33.521 48.979,33.827 49.814,34.126 50.619 C 34.426 51.423,34.912 52.739,35.208 53.543 C 35.504 54.348,36.004 55.681,36.321 56.506 C 36.637 57.332,36.895 58.151,36.895 58.327 C 36.895 58.661,36.241 58.931,29.359 61.437 C 27.672 62.052,25.092 63.037,25.031 63.090 C 24.968 63.145,25.877 65.738,27.401 69.854 C 28.151 71.879,28.584 72.764,28.809 72.730 C 29.205 72.672,31.970 71.694,32.283 71.501 C 32.407 71.426,33.015 71.207,33.633 71.016 C 34.252 70.825,35.708 70.308,36.870 69.867 C 39.546 68.852,39.717 68.855,40.055 69.910 C 40.203 70.374,40.628 71.564,41.000 72.553 C 41.372 73.543,41.880 74.910,42.129 75.591 C 42.378 76.271,42.778 77.321,43.018 77.924 C 43.566 79.297,43.988 79.025,37.908 81.215 C 35.062 82.240,32.660 83.142,32.571 83.220 C 32.401 83.369,32.694 84.407,33.594 86.839 C 36.006 93.359,39.820 104.020,39.820 104.240 C 39.820 104.391,39.491 104.643,39.089 104.801 C 37.279 105.513,26.075 109.545,25.736 109.606 C 25.374 109.671,24.553 107.718,22.503 101.912 C 21.938 100.312,21.304 98.565,20.623 96.738 C 20.324 95.934,18.787 91.732,17.208 87.402 C 15.629 83.071,14.091 78.870,13.790 78.065 C 13.490 77.261,13.105 76.198,12.935 75.703 C 12.766 75.208,12.329 73.993,11.966 73.003 C 9.733 66.929,6.751 58.631,6.699 58.343 C 6.640 58.024,7.938 57.442,11.136 56.354 C 11.631 56.185,12.694 55.801,13.498 55.499 C 15.099 54.897,30.024 49.446,31.834 48.801 C 33.262 48.292,33.283 48.292,33.446 48.763 M56.243 50.262 C 55.245 50.622,55.148 50.096,57.346 56.243 C 59.564 62.446,59.266 61.960,60.583 61.511 C 63.134 60.642,63.278 59.397,61.416 54.309 C 59.806 49.907,58.992 49.270,56.243 50.262 M293.336 52.907 C 290.568 53.645,290.220 56.453,292.224 61.867 C 292.888 63.661,293.627 65.686,293.865 66.367 C 294.437 67.998,294.471 68.021,295.629 67.527 C 296.177 67.293,297.801 66.677,299.238 66.159 L 301.850 65.215 300.625 61.910 C 299.951 60.092,299.319 58.352,299.221 58.043 C 297.840 53.696,296.094 52.172,293.336 52.907 M224.184 80.862 C 221.537 82.141,221.449 83.857,223.716 89.989 C 224.562 92.278,225.533 94.910,225.874 95.838 C 226.901 98.633,228.370 102.615,228.903 104.049 C 229.179 104.792,230.226 107.627,231.230 110.349 C 234.027 117.937,234.162 118.288,234.624 119.185 C 236.263 122.365,239.688 122.794,241.705 120.071 C 242.357 119.191,242.326 116.727,241.637 114.736 C 241.090 113.157,239.892 109.953,239.575 109.224 C 239.467 108.976,238.755 107.053,237.992 104.949 C 237.229 102.846,236.380 100.517,236.104 99.775 C 235.828 99.033,234.968 96.704,234.192 94.601 C 233.416 92.497,232.555 90.169,232.280 89.426 C 232.004 88.684,231.423 87.108,230.987 85.924 C 228.958 80.407,227.451 79.286,224.184 80.862 M171.012 84.157 C 179.630 85.943,185.276 91.343,188.988 101.350 C 189.217 101.969,189.650 103.133,189.949 103.937 C 190.249 104.741,191.107 107.070,191.856 109.111 C 192.605 111.153,193.483 113.532,193.807 114.398 C 194.132 115.264,195.063 117.795,195.876 120.022 C 196.689 122.250,197.601 124.730,197.902 125.534 C 200.643 132.854,201.393 135.969,201.398 140.068 C 201.414 151.760,192.518 160.931,175.703 166.557 C 158.595 172.281,146.612 168.600,140.301 155.681 C 139.087 153.197,137.444 148.961,135.284 142.745 C 135.112 142.250,134.874 141.642,134.756 141.395 C 134.637 141.147,134.120 139.781,133.605 138.358 C 132.208 134.490,131.906 133.660,131.309 132.058 C 129.736 127.838,128.745 125.120,127.765 122.330 C 123.813 111.088,126.496 101.550,135.658 94.270 C 145.167 86.715,161.210 82.126,171.012 84.157 M156.129 103.922 C 151.782 105.245,151.835 106.323,156.909 119.798 C 157.235 120.664,158.167 123.195,158.981 125.422 C 159.794 127.649,160.686 130.079,160.962 130.821 C 162.403 134.690,164.341 139.954,164.691 140.945 C 167.132 147.866,168.784 149.447,172.009 147.945 C 174.870 146.613,174.984 144.948,172.649 138.659 C 171.967 136.823,170.791 133.650,170.036 131.609 C 169.281 129.567,168.438 127.289,168.162 126.547 C 167.887 125.804,167.026 123.476,166.250 121.372 C 165.474 119.269,164.613 116.940,164.337 116.198 C 164.061 115.456,163.197 113.092,162.416 110.945 C 160.104 104.583,158.788 103.113,156.129 103.922 M103.262 108.583 C 111.455 110.088,116.487 115.458,120.827 127.326 C 122.189 131.052,122.212 130.741,120.529 131.364 C 117.584 132.453,115.663 133.162,113.161 134.084 C 111.738 134.609,109.966 135.264,109.224 135.540 C 108.481 135.817,106.204 136.657,104.162 137.407 C 102.120 138.157,100.096 138.919,99.663 139.101 C 97.314 140.086,97.522 140.291,95.686 135.208 C 93.283 128.556,92.167 127.347,89.446 128.451 C 88.450 128.855,88.139 129.120,87.706 129.936 L 87.180 130.929 87.686 132.841 C 87.965 133.892,88.647 135.916,89.203 137.338 C 89.759 138.759,90.214 140.056,90.214 140.220 C 90.214 140.384,90.301 140.614,90.407 140.731 C 90.513 140.849,91.032 142.160,91.560 143.645 C 92.088 145.129,92.745 146.952,93.021 147.694 C 93.297 148.436,94.160 150.765,94.938 152.868 C 95.716 154.972,96.579 157.300,96.854 158.043 C 97.130 158.785,97.970 161.063,98.722 163.105 C 101.641 171.039,101.853 171.475,103.222 172.378 C 104.339 173.115,106.463 172.620,107.314 171.424 C 108.283 170.064,107.925 168.273,105.251 161.108 C 103.949 157.620,103.792 157.989,107.087 156.787 C 108.510 156.267,110.281 155.616,111.024 155.339 C 113.468 154.427,117.528 152.926,118.673 152.510 C 119.291 152.285,120.456 151.856,121.260 151.556 C 128.956 148.687,128.198 148.752,128.984 150.901 C 132.513 160.546,132.829 161.866,132.838 167.042 C 132.856 176.313,128.554 182.116,117.713 187.445 C 101.002 195.660,88.710 195.946,80.980 188.301 C 77.179 184.542,75.085 180.783,71.894 171.991 C 71.445 170.754,70.882 169.235,70.642 168.616 C 70.403 167.998,69.592 165.821,68.841 163.780 C 66.894 158.488,63.920 150.424,63.283 148.706 C 59.577 138.708,59.644 131.870,63.515 125.274 C 68.548 116.698,81.873 109.819,96.738 108.122 C 98.004 107.978,101.196 108.203,103.262 108.583 M49.626 140.776 C 49.931 141.486,51.434 145.532,53.115 150.169 C 53.340 150.787,53.768 151.952,54.068 152.756 C 56.445 159.133,56.483 159.265,56.067 159.679 C 55.687 160.056,51.009 163.659,49.720 164.567 C 49.369 164.814,48.035 165.823,46.757 166.807 C 45.478 167.792,42.960 169.716,41.161 171.082 C 39.362 172.448,36.274 174.805,34.299 176.320 C 32.324 177.835,29.709 179.834,28.487 180.763 L 26.265 182.452 28.712 182.450 C 30.058 182.449,34.398 182.301,38.358 182.122 C 44.660 181.837,55.264 181.460,62.202 181.275 L 64.448 181.215 64.844 182.053 C 65.062 182.514,65.891 184.690,66.687 186.890 C 67.483 189.089,68.286 191.294,68.471 191.789 C 69.035 193.298,69.101 193.475,70.420 197.075 L 71.697 200.562 40.188 200.619 C 15.163 200.665,8.626 200.618,8.420 200.394 C 8.277 200.239,7.878 199.303,7.533 198.313 C 7.188 197.323,6.772 196.209,6.607 195.838 C 6.443 195.467,5.687 193.442,4.926 191.339 C 4.165 189.235,3.298 186.856,2.999 186.052 C 1.810 182.858,1.538 182.096,1.427 181.645 C 1.334 181.267,1.746 180.806,3.524 179.298 C 4.741 178.266,5.838 177.311,5.962 177.175 C 6.085 177.040,9.376 174.201,13.273 170.866 C 17.171 167.532,20.411 164.741,20.472 164.666 C 20.534 164.590,23.166 162.317,26.322 159.616 C 29.477 156.914,32.469 154.341,32.970 153.899 C 34.051 152.944,34.610 152.461,38.020 149.525 C 40.916 147.034,41.777 146.291,46.116 142.549 C 49.658 139.494,49.178 139.736,49.626 140.776 M243.982 157.027 C 247.215 157.942,250.250 159.761,251.610 161.600 L 252.078 162.233 250.392 163.784 C 248.359 165.654,248.478 165.641,246.956 164.156 C 241.378 158.709,232.696 159.741,228.480 166.352 C 223.089 174.806,223.258 190.976,228.817 198.557 C 232.588 203.700,239.926 205.312,245.951 202.323 L 247.019 201.792 247.019 193.247 L 247.019 184.702 242.970 184.702 L 238.920 184.702 238.920 182.565 L 238.920 180.427 245.894 180.427 L 252.868 180.427 252.868 192.313 L 252.868 204.198 251.379 205.069 C 243.886 209.451,232.879 209.035,226.871 204.142 C 221.472 199.744,218.778 193.255,218.514 184.012 C 218.076 168.685,224.121 158.656,235.096 156.501 C 236.642 156.197,242.213 156.527,243.982 157.027 M284.139 158.095 C 290.523 159.812,293.510 163.551,293.751 170.124 C 293.998 176.857,290.529 181.922,284.838 183.143 C 283.444 183.442,283.402 183.137,285.427 187.378 C 286.840 190.337,287.420 191.560,289.623 196.225 C 291.039 199.223,293.277 203.888,294.063 205.479 C 294.421 206.203,294.713 206.886,294.713 206.997 C 294.713 207.108,293.312 207.199,291.599 207.199 L 288.485 207.199 287.751 205.692 C 287.346 204.863,286.634 203.319,286.168 202.261 C 285.701 201.203,284.841 199.325,284.256 198.088 C 283.672 196.850,282.738 194.826,282.181 193.588 C 281.624 192.351,280.863 190.681,280.490 189.876 C 280.117 189.072,279.517 187.756,279.156 186.952 C 277.874 184.096,278.387 184.373,274.255 184.303 L 270.641 184.241 270.641 195.727 L 270.641 207.213 267.773 207.150 L 264.904 207.087 264.846 182.565 C 264.815 169.078,264.840 157.909,264.902 157.745 C 265.108 157.206,281.974 157.513,284.139 158.095 M321.102 158.830 C 321.325 159.511,321.763 160.979,322.076 162.092 C 323.183 166.029,323.488 167.090,324.857 171.766 C 325.617 174.364,326.882 178.718,327.668 181.440 C 328.453 184.162,329.672 188.363,330.378 190.776 C 331.083 193.189,331.738 195.467,331.834 195.838 C 331.978 196.400,334.091 203.654,334.781 205.960 C 335.166 207.246,335.235 207.217,331.911 207.149 L 328.839 207.087 328.345 205.287 C 327.749 203.113,327.139 200.968,326.137 197.525 L 325.384 194.938 316.551 194.938 L 307.717 194.938 307.164 196.738 C 306.138 200.075,305.793 201.228,305.074 203.712 C 303.946 207.606,304.420 207.199,301.017 207.199 C 297.702 207.199,297.858 207.319,298.512 205.268 C 298.746 204.536,299.260 202.823,299.656 201.462 C 300.052 200.101,300.561 198.380,300.787 197.638 C 301.014 196.895,301.456 195.427,301.770 194.376 C 302.084 193.324,302.689 191.299,303.115 189.876 C 303.541 188.453,304.212 186.175,304.606 184.814 C 305.000 183.453,305.414 182.087,305.527 181.777 C 305.639 181.468,305.990 180.304,306.306 179.190 C 306.622 178.076,307.126 176.355,307.426 175.366 C 308.770 170.929,309.660 167.956,310.459 165.242 C 310.933 163.633,311.594 161.406,311.929 160.292 C 312.263 159.179,312.589 158.088,312.652 157.869 C 312.756 157.504,313.098 157.475,316.732 157.531 L 320.697 157.593 321.102 158.830 M354.242 167.829 C 356.111 173.459,359.178 182.713,361.057 188.394 C 364.635 199.213,364.801 199.667,364.981 199.100 C 365.796 196.535,369.537 184.998,370.526 182.002 C 371.241 179.837,372.814 175.028,374.022 171.316 C 375.230 167.604,376.736 162.998,377.368 161.080 L 378.518 157.593 383.016 157.593 L 387.514 157.593 387.514 182.340 L 387.514 207.087 384.646 207.150 L 381.777 207.213 381.764 185.665 L 381.752 164.117 381.116 165.917 C 380.766 166.907,377.548 176.575,373.965 187.402 L 367.450 207.087 364.659 207.087 L 361.867 207.087 360.804 203.937 C 360.219 202.205,359.594 200.281,359.414 199.663 C 359.235 199.044,358.789 197.677,358.423 196.625 C 358.057 195.574,356.112 189.702,354.101 183.577 C 348.664 167.019,348.007 165.049,347.792 164.679 C 347.679 164.485,347.592 173.452,347.588 185.771 L 347.582 207.199 344.882 207.199 L 342.182 207.199 342.182 182.335 L 342.182 157.471 346.513 157.532 L 350.844 157.593 354.242 167.829 M270.641 170.866 L 270.641 179.978 275.212 179.978 C 284.125 179.978,287.240 178.104,287.928 172.328 C 288.832 164.746,285.153 161.755,274.925 161.755 L 270.641 161.755 270.641 170.866 M316.308 162.688 C 316.167 163.227,315.848 164.376,315.600 165.242 C 315.100 166.992,315.012 167.309,313.384 173.228 C 312.755 175.517,312.097 177.897,311.923 178.515 C 311.398 180.382,310.528 183.539,309.785 186.277 C 309.399 187.700,308.988 189.096,308.872 189.381 C 308.373 190.604,308.025 190.551,316.562 190.551 L 324.462 190.551 324.350 190.045 C 324.289 189.767,323.708 187.615,323.059 185.264 C 322.411 182.913,321.751 180.484,321.593 179.865 C 321.434 179.246,320.776 176.817,320.130 174.466 C 319.484 172.115,318.827 169.685,318.669 169.066 C 318.092 166.802,316.717 161.865,316.642 161.788 C 316.600 161.745,316.449 162.150,316.308 162.688 " stroke="none" fill="#fbfbfb" fill-rule="evenodd"></path><path id="path2" d="M137.145 21.260 C 137.330 22.087,137.459 22.267,137.454 21.691 C 137.452 21.454,137.348 21.108,137.223 20.922 C 137.056 20.676,137.035 20.767,137.145 21.260 M301.414 33.237 C 302.067 33.283,303.080 33.282,303.663 33.236 C 304.247 33.190,303.712 33.152,302.475 33.153 C 301.237 33.154,300.760 33.191,301.414 33.237 M363.948 36.164 C 368.186 36.198,375.121 36.198,379.359 36.164 C 383.597 36.130,380.129 36.102,371.654 36.102 C 363.178 36.102,359.710 36.130,363.948 36.164 M61.924 38.400 C 62.140 38.457,62.494 38.457,62.711 38.400 C 62.927 38.344,62.750 38.297,62.317 38.297 C 61.884 38.297,61.707 38.344,61.924 38.400 M270.633 46.063 L 269.404 47.357 270.697 46.127 C 271.899 44.985,272.094 44.769,271.927 44.769 C 271.892 44.769,271.310 45.352,270.633 46.063 M57.874 49.874 C 58.091 49.930,58.445 49.930,58.661 49.874 C 58.878 49.817,58.701 49.771,58.268 49.771 C 57.835 49.771,57.657 49.817,57.874 49.874 M293.701 52.649 C 293.400 52.782,293.587 52.804,294.263 52.715 C 294.820 52.641,295.318 52.544,295.369 52.500 C 295.565 52.330,294.130 52.459,293.701 52.649 M291.662 53.825 L 291.001 54.556 291.732 53.895 C 292.414 53.279,292.567 53.093,292.393 53.093 C 292.354 53.093,292.025 53.422,291.662 53.825 M374.975 54.152 C 375.269 54.209,375.421 54.353,375.334 54.494 C 375.244 54.639,375.289 54.673,375.443 54.577 C 375.909 54.289,375.717 53.993,375.084 54.024 C 374.549 54.050,374.534 54.068,374.975 54.152 M368.677 54.381 C 369.081 54.431,369.688 54.430,370.027 54.379 C 370.365 54.328,370.034 54.287,369.291 54.288 C 368.549 54.289,368.272 54.331,368.677 54.381 M363.386 54.609 C 363.974 54.655,364.935 54.655,365.523 54.609 C 366.111 54.562,365.630 54.524,364.454 54.524 C 363.279 54.524,362.798 54.562,363.386 54.609 M357.987 54.832 C 358.451 54.881,359.210 54.881,359.674 54.832 C 360.138 54.784,359.758 54.744,358.830 54.744 C 357.902 54.744,357.522 54.784,357.987 54.832 M351.800 55.056 C 352.202 55.106,352.860 55.106,353.262 55.056 C 353.664 55.006,353.335 54.965,352.531 54.965 C 351.727 54.965,351.398 55.006,351.800 55.056 M345.163 55.279 C 345.503 55.331,346.060 55.331,346.400 55.279 C 346.741 55.228,346.462 55.186,345.782 55.186 C 345.101 55.186,344.823 55.228,345.163 55.279 M339.546 55.509 C 340.137 55.555,341.048 55.555,341.570 55.507 C 342.092 55.460,341.609 55.422,340.495 55.423 C 339.381 55.424,338.954 55.462,339.546 55.509 M290.725 56.468 C 290.725 57.025,290.769 57.253,290.822 56.974 C 290.876 56.696,290.876 56.240,290.822 55.962 C 290.769 55.683,290.725 55.911,290.725 56.468 M62.819 58.943 C 62.819 59.376,62.866 59.553,62.922 59.336 C 62.979 59.120,62.979 58.765,62.922 58.549 C 62.866 58.332,62.819 58.510,62.819 58.943 M263.749 62.430 C 263.750 63.667,263.788 64.145,263.833 63.491 C 263.879 62.837,263.878 61.825,263.832 61.241 C 263.786 60.657,263.749 61.192,263.749 62.430 M394.024 61.024 L 393.363 61.755 394.094 61.094 C 394.776 60.478,394.929 60.292,394.755 60.292 C 394.717 60.292,394.388 60.621,394.024 61.024 M74.838 61.379 C 74.400 61.863,74.365 62.092,74.728 62.092 C 74.873 62.092,74.923 62.025,74.840 61.942 C 74.757 61.859,74.857 61.606,75.062 61.379 C 75.268 61.153,75.385 60.967,75.323 60.967 C 75.261 60.967,75.043 61.153,74.838 61.379 M210.461 64.567 C 210.178 64.689,210.136 64.760,210.349 64.760 C 210.534 64.760,210.889 64.673,211.136 64.567 C 211.420 64.445,211.461 64.374,211.249 64.374 C 211.063 64.374,210.709 64.461,210.461 64.567 M384.125 69.573 L 383.465 70.304 384.196 69.643 C 384.877 69.027,385.030 68.841,384.856 68.841 C 384.818 68.841,384.489 69.170,384.125 69.573 M198.304 71.147 L 197.188 72.328 198.369 71.212 C 199.466 70.175,199.653 69.966,199.485 69.966 C 199.450 69.966,198.918 70.498,198.304 71.147 M376.026 76.547 L 375.366 77.278 376.097 76.617 C 376.778 76.001,376.931 75.816,376.758 75.816 C 376.719 75.816,376.390 76.145,376.026 76.547 M372.652 79.471 L 371.991 80.202 372.722 79.542 C 373.404 78.926,373.557 78.740,373.383 78.740 C 373.344 78.740,373.015 79.069,372.652 79.471 M226.153 80.245 C 226.370 80.302,226.724 80.302,226.940 80.245 C 227.157 80.188,226.980 80.142,226.547 80.142 C 226.114 80.142,225.936 80.188,226.153 80.245 M369.502 82.171 L 368.841 82.902 369.573 82.241 C 370.254 81.625,370.407 81.440,370.233 81.440 C 370.195 81.440,369.866 81.769,369.502 82.171 M193.332 83.915 C 193.332 85.090,193.370 85.571,193.416 84.983 C 193.463 84.395,193.463 83.434,193.416 82.846 C 193.370 82.258,193.332 82.739,193.332 83.915 M337.039 82.115 C 337.039 82.300,337.127 82.655,337.233 82.902 C 337.355 83.186,337.426 83.227,337.426 83.015 C 337.426 82.829,337.339 82.475,337.233 82.227 C 337.111 81.944,337.039 81.902,337.039 82.115 M162.261 83.845 C 162.478 83.901,162.832 83.901,163.048 83.845 C 163.265 83.788,163.088 83.742,162.655 83.742 C 162.222 83.742,162.044 83.788,162.261 83.845 M175.497 85.573 C 175.728 85.780,177.053 86.389,177.053 86.288 C 177.053 86.159,175.806 85.489,175.564 85.489 C 175.476 85.489,175.445 85.527,175.497 85.573 M338.410 90.439 C 338.410 90.872,338.456 91.049,338.513 90.832 C 338.569 90.616,338.569 90.262,338.513 90.045 C 338.456 89.828,338.410 90.006,338.410 90.439 M358.029 92.070 L 357.368 92.801 358.099 92.140 C 358.781 91.524,358.934 91.339,358.760 91.339 C 358.721 91.339,358.392 91.668,358.029 92.070 M354.879 94.769 L 354.218 95.501 354.949 94.840 C 355.631 94.224,355.784 94.038,355.610 94.038 C 355.571 94.038,355.242 94.367,354.879 94.769 M132.840 96.794 L 131.271 98.425 132.902 96.856 C 133.799 95.994,134.533 95.260,134.533 95.225 C 134.533 95.060,134.297 95.279,132.840 96.794 M353.197 96.186 C 353.039 96.377,352.748 96.472,352.551 96.397 C 352.263 96.288,352.249 96.317,352.477 96.547 C 352.706 96.778,352.857 96.737,353.258 96.335 C 353.532 96.062,353.695 95.838,353.621 95.838 C 353.547 95.838,353.356 95.994,353.197 96.186 M332.721 104.556 L 331.946 105.399 332.790 104.624 C 333.254 104.198,333.633 103.818,333.633 103.780 C 333.633 103.609,333.443 103.770,332.721 104.556 M330.922 106.355 L 330.146 107.199 330.990 106.424 C 331.454 105.997,331.834 105.618,331.834 105.580 C 331.834 105.408,331.643 105.570,330.922 106.355 M97.919 108.148 C 98.259 108.199,98.816 108.199,99.156 108.148 C 99.497 108.096,99.218 108.054,98.538 108.054 C 97.857 108.054,97.579 108.096,97.919 108.148 M95.334 108.371 C 95.614 108.424,96.019 108.422,96.234 108.366 C 96.449 108.310,96.220 108.266,95.726 108.268 C 95.231 108.271,95.055 108.317,95.334 108.371 M100.844 108.367 C 101.060 108.423,101.415 108.423,101.631 108.367 C 101.848 108.310,101.670 108.264,101.237 108.264 C 100.804 108.264,100.627 108.310,100.844 108.367 M126.041 111.249 C 126.043 111.744,126.090 111.920,126.143 111.640 C 126.197 111.360,126.195 110.955,126.139 110.740 C 126.083 110.525,126.038 110.754,126.041 111.249 M282.452 112.036 C 282.935 112.531,283.382 112.936,283.443 112.936 C 283.505 112.936,283.160 112.531,282.677 112.036 C 282.194 111.541,281.748 111.136,281.686 111.136 C 281.624 111.136,281.969 111.541,282.452 112.036 M113.048 113.836 C 113.783 114.578,114.435 115.186,114.497 115.186 C 114.558 115.186,114.008 114.578,113.273 113.836 C 112.539 113.093,111.887 112.486,111.825 112.486 C 111.763 112.486,112.314 113.093,113.048 113.836 M126.041 114.398 C 126.043 114.893,126.090 115.069,126.143 114.789 C 126.197 114.509,126.195 114.104,126.139 113.889 C 126.083 113.674,126.038 113.903,126.041 114.398 M297.132 118.727 C 297.905 118.771,299.170 118.771,299.944 118.727 C 300.717 118.683,300.084 118.647,298.538 118.647 C 296.991 118.647,296.358 118.683,297.132 118.727 M67.259 120.529 L 66.029 121.822 67.323 120.593 C 68.525 119.450,68.719 119.235,68.552 119.235 C 68.517 119.235,67.935 119.817,67.259 120.529 M87.601 129.703 C 87.396 130.017,87.269 130.314,87.319 130.364 C 87.369 130.414,87.581 130.157,87.789 129.794 C 88.253 128.985,88.115 128.919,87.601 129.703 M60.600 136.220 C 60.600 137.458,60.638 137.935,60.684 137.282 C 60.729 136.628,60.729 135.615,60.682 135.032 C 60.636 134.448,60.599 134.983,60.600 136.220 M201.182 137.570 C 201.184 138.065,201.230 138.241,201.284 137.961 C 201.338 137.682,201.336 137.277,201.279 137.061 C 201.223 136.846,201.179 137.075,201.182 137.570 M243.968 139.539 L 243.307 140.270 244.038 139.609 C 244.720 138.993,244.873 138.808,244.699 138.808 C 244.660 138.808,244.331 139.137,243.968 139.539 M60.795 139.708 C 60.795 140.141,60.841 140.318,60.897 140.101 C 60.954 139.885,60.954 139.530,60.897 139.314 C 60.841 139.097,60.795 139.274,60.795 139.708 M201.177 142.632 C 201.177 143.065,201.223 143.242,201.280 143.026 C 201.337 142.809,201.337 142.455,201.280 142.238 C 201.223 142.022,201.177 142.199,201.177 142.632 M37.894 149.663 L 37.233 150.394 37.964 149.733 C 38.646 149.117,38.799 148.931,38.625 148.931 C 38.586 148.931,38.257 149.260,37.894 149.663 M197.300 152.531 C 197.036 152.902,196.870 153.206,196.932 153.206 C 196.994 153.206,197.261 152.902,197.525 152.531 C 197.790 152.160,197.955 151.856,197.893 151.856 C 197.832 151.856,197.565 152.160,197.300 152.531 M235.827 156.511 C 236.043 156.567,236.398 156.567,236.614 156.511 C 236.831 156.454,236.654 156.408,236.220 156.408 C 235.787 156.408,235.610 156.454,235.827 156.511 M240.101 156.511 C 240.318 156.567,240.672 156.567,240.889 156.511 C 241.105 156.454,240.928 156.408,240.495 156.408 C 240.062 156.408,239.885 156.454,240.101 156.511 M264.896 157.762 C 264.837 157.916,264.815 169.078,264.847 182.565 L 264.906 207.087 264.962 182.399 L 265.017 157.711 273.172 157.649 L 281.327 157.587 273.165 157.534 C 266.803 157.492,264.979 157.542,264.896 157.762 M314.556 157.648 C 315.632 157.689,317.454 157.689,318.605 157.648 C 319.756 157.607,318.875 157.574,316.648 157.573 C 314.421 157.573,313.479 157.607,314.556 157.648 M343.532 157.635 C 347.093 157.796,350.905 157.804,350.809 157.649 C 350.752 157.556,348.762 157.500,346.387 157.524 C 344.013 157.549,342.728 157.598,343.532 157.635 M378.553 157.644 C 378.493 157.740,380.460 157.788,382.922 157.753 L 387.400 157.687 387.458 182.387 L 387.517 207.087 387.516 182.340 L 387.514 157.593 383.087 157.532 C 380.652 157.498,378.612 157.549,378.553 157.644 M250.731 160.855 C 251.214 161.350,251.660 161.755,251.722 161.755 C 251.784 161.755,251.439 161.350,250.956 160.855 C 250.473 160.360,250.027 159.955,249.965 159.955 C 249.903 159.955,250.248 160.360,250.731 160.855 M225.527 161.586 L 224.184 162.992 225.591 161.649 C 226.897 160.402,227.100 160.180,226.933 160.180 C 226.899 160.180,226.266 160.813,225.527 161.586 M290.214 161.417 C 290.633 161.850,291.028 162.205,291.089 162.205 C 291.151 162.205,290.858 161.850,290.439 161.417 C 290.019 160.984,289.625 160.630,289.563 160.630 C 289.501 160.630,289.794 160.984,290.214 161.417 M23.270 162.261 L 22.610 162.992 23.341 162.331 C 24.022 161.715,24.175 161.530,24.002 161.530 C 23.963 161.530,23.634 161.859,23.270 162.261 M145.444 163.105 C 145.928 163.600,146.374 164.004,146.436 164.004 C 146.497 164.004,146.153 163.600,145.669 163.105 C 145.186 162.610,144.740 162.205,144.678 162.205 C 144.616 162.205,144.961 162.610,145.444 163.105 M251.167 162.936 L 250.506 163.667 251.237 163.006 C 251.919 162.390,252.072 162.205,251.898 162.205 C 251.859 162.205,251.530 162.534,251.167 162.936 M249.142 164.736 L 248.481 165.467 249.213 164.806 C 249.894 164.190,250.047 164.004,249.873 164.004 C 249.835 164.004,249.506 164.334,249.142 164.736 M107.823 169.629 C 107.823 170.186,107.867 170.413,107.920 170.135 C 107.974 169.857,107.974 169.401,107.920 169.123 C 107.867 168.844,107.823 169.072,107.823 169.629 M288.021 169.516 C 288.023 170.011,288.069 170.187,288.123 169.907 C 288.177 169.628,288.175 169.223,288.119 169.008 C 288.062 168.792,288.018 169.021,288.021 169.516 M158.774 169.113 C 159.052 169.166,159.508 169.166,159.786 169.113 C 160.065 169.059,159.837 169.015,159.280 169.015 C 158.723 169.015,158.496 169.059,158.774 169.113 M163.161 169.115 C 163.501 169.167,164.058 169.167,164.398 169.115 C 164.738 169.063,164.460 169.021,163.780 169.021 C 163.099 169.021,162.821 169.063,163.161 169.115 M288.025 171.879 C 288.025 172.435,288.069 172.663,288.123 172.385 C 288.176 172.106,288.176 171.651,288.123 171.372 C 288.069 171.094,288.025 171.322,288.025 171.879 M8.647 174.859 L 7.987 175.591 8.718 174.930 C 9.120 174.566,9.449 174.237,9.449 174.199 C 9.449 174.025,9.263 174.178,8.647 174.859 M74.032 177.615 C 74.032 177.739,74.176 178.093,74.353 178.403 C 74.530 178.712,74.675 178.864,74.675 178.740 C 74.675 178.616,74.530 178.262,74.353 177.953 C 74.176 177.643,74.032 177.492,74.032 177.615 M224.586 178.965 C 224.588 179.584,224.632 179.810,224.683 179.468 C 224.735 179.126,224.734 178.620,224.680 178.343 C 224.627 178.067,224.585 178.346,224.586 178.965 M127.326 180.821 L 126.097 182.115 127.390 180.885 C 128.592 179.743,128.787 179.528,128.620 179.528 C 128.585 179.528,128.003 180.110,127.326 180.821 M1.898 180.709 L 1.237 181.440 1.969 180.779 C 2.371 180.416,2.700 180.087,2.700 180.048 C 2.700 179.874,2.514 180.027,1.898 180.709 M272.959 180.146 C 274.296 180.185,276.422 180.185,277.684 180.145 C 278.945 180.105,277.852 180.073,275.253 180.073 C 272.655 180.073,271.622 180.106,272.959 180.146 M56.862 181.490 C 57.264 181.540,57.922 181.540,58.324 181.490 C 58.726 181.440,58.397 181.399,57.593 181.399 C 56.789 181.399,56.460 181.440,56.862 181.490 M50.118 181.717 C 50.648 181.765,51.457 181.764,51.918 181.716 C 52.379 181.667,51.946 181.629,50.956 181.629 C 49.966 181.630,49.589 181.670,50.118 181.717 M44.376 181.943 C 44.963 181.989,45.925 181.989,46.513 181.943 C 47.101 181.896,46.620 181.858,45.444 181.858 C 44.269 181.858,43.788 181.896,44.376 181.943 M39.320 182.167 C 39.849 182.215,40.659 182.214,41.120 182.166 C 41.580 182.117,41.147 182.079,40.157 182.079 C 39.168 182.080,38.791 182.120,39.320 182.167 M26.097 182.507 C 26.097 182.601,26.780 182.663,27.615 182.647 C 29.189 182.615,29.014 182.520,27.165 182.404 C 26.578 182.367,26.097 182.413,26.097 182.507 M33.694 182.390 C 34.098 182.440,34.705 182.439,35.043 182.388 C 35.381 182.337,35.051 182.296,34.308 182.297 C 33.566 182.298,33.289 182.340,33.694 182.390 M242.967 184.643 L 247.014 184.712 247.077 193.312 L 247.140 201.912 247.136 193.251 L 247.132 184.589 243.026 184.582 L 238.920 184.574 242.967 184.643 M224.583 185.602 C 224.583 186.159,224.627 186.386,224.681 186.108 C 224.734 185.830,224.734 185.374,224.681 185.096 C 224.627 184.817,224.583 185.045,224.583 185.602 M218.500 186.052 C 218.500 186.485,218.546 186.662,218.603 186.445 C 218.659 186.229,218.659 185.875,218.603 185.658 C 218.546 185.442,218.500 185.619,218.500 186.052 M79.190 186.572 C 79.190 186.611,79.519 186.940,79.921 187.303 L 80.652 187.964 79.992 187.233 C 79.376 186.551,79.190 186.398,79.190 186.572 M80.990 188.372 C 80.990 188.411,81.319 188.740,81.721 189.103 L 82.452 189.764 81.791 189.033 C 81.176 188.351,80.990 188.198,80.990 188.372 M308.584 190.607 C 308.641 190.700,312.219 190.776,316.535 190.776 C 320.852 190.776,324.430 190.700,324.487 190.607 C 324.545 190.515,320.966 190.439,316.535 190.439 C 312.105 190.439,308.526 190.515,308.584 190.607 M94.207 193.864 C 94.609 193.913,95.267 193.913,95.669 193.864 C 96.071 193.814,95.742 193.773,94.938 193.773 C 94.134 193.773,93.805 193.814,94.207 193.864 M282.806 194.938 C 282.806 195.062,282.950 195.416,283.127 195.726 C 283.304 196.035,283.449 196.187,283.449 196.063 C 283.449 195.939,283.304 195.585,283.127 195.276 C 282.950 194.966,282.806 194.814,282.806 194.938 M229.921 200.112 C 230.341 200.546,230.735 200.900,230.797 200.900 C 230.859 200.900,230.566 200.546,230.146 200.112 C 229.726 199.679,229.332 199.325,229.271 199.325 C 229.209 199.325,229.502 199.679,229.921 200.112 M8.295 200.281 C 8.582 200.647,9.301 200.671,18.419 200.621 L 28.234 200.567 18.468 200.506 C 11.121 200.460,8.613 200.376,8.344 200.166 C 8.028 199.920,8.022 199.933,8.295 200.281 M294.220 206.187 C 294.334 206.434,294.484 206.789,294.553 206.974 C 294.661 207.266,294.680 207.264,294.695 206.961 C 294.705 206.768,294.556 206.414,294.363 206.173 C 294.019 205.744,294.017 205.744,294.220 206.187 M236.842 208.033 C 237.122 208.087,237.527 208.085,237.742 208.029 C 237.957 207.972,237.728 207.928,237.233 207.931 C 236.738 207.933,236.562 207.979,236.842 208.033 M240.779 208.035 C 241.121 208.087,241.627 208.086,241.904 208.032 C 242.181 207.979,241.901 207.937,241.282 207.938 C 240.664 207.940,240.437 207.984,240.779 208.035 " stroke="none" fill="#a0a0a0" fill-rule="evenodd"></path><path id="path3" d="M97.975 24.642 C 97.410 24.915,97.392 24.945,97.863 24.832 C 98.172 24.757,98.521 24.606,98.639 24.497 C 98.931 24.224,98.770 24.259,97.975 24.642 M300.834 33.462 C 301.664 33.506,303.081 33.506,303.983 33.463 C 304.886 33.420,304.207 33.385,302.475 33.385 C 300.742 33.384,300.004 33.419,300.834 33.462 M330.262 36.277 C 330.264 36.431,330.372 36.710,330.502 36.895 C 330.687 37.160,330.708 37.124,330.597 36.730 L 330.455 36.226 338.512 36.164 L 346.569 36.102 338.414 36.049 C 332.010 36.007,330.259 36.056,330.262 36.277 M367.154 36.385 C 382.079 36.540,393.423 36.542,393.329 36.389 C 393.271 36.296,386.068 36.244,377.321 36.273 C 368.574 36.301,363.999 36.352,367.154 36.385 M318.785 39.483 C 319.205 39.916,319.599 40.270,319.661 40.270 C 319.723 40.270,319.430 39.916,319.010 39.483 C 318.590 39.049,318.196 38.695,318.134 38.695 C 318.073 38.695,318.365 39.049,318.785 39.483 M214.062 39.368 C 213.986 39.491,214.038 39.769,214.178 39.987 C 214.412 40.350,214.421 40.347,214.295 39.950 C 214.218 39.706,214.283 39.439,214.447 39.335 C 214.652 39.205,214.658 39.151,214.468 39.149 C 214.320 39.147,214.138 39.246,214.062 39.368 M270.972 45.951 L 269.629 47.357 271.035 46.014 C 271.808 45.275,272.441 44.643,272.441 44.608 C 272.441 44.441,272.219 44.644,270.972 45.951 M133.488 44.993 C 133.222 45.100,132.942 45.289,132.865 45.413 C 132.751 45.598,133.968 45.114,134.289 44.847 C 134.458 44.707,133.981 44.794,133.488 44.993 M77.233 54.893 C 77.233 55.574,77.275 55.852,77.326 55.512 C 77.378 55.172,77.378 54.615,77.326 54.274 C 77.275 53.934,77.233 54.213,77.233 54.893 M372.835 54.148 C 373.051 54.205,373.406 54.205,373.622 54.148 C 373.839 54.092,373.661 54.045,373.228 54.045 C 372.795 54.045,372.618 54.092,372.835 54.148 M365.976 54.377 C 366.255 54.431,366.660 54.429,366.876 54.373 C 367.091 54.316,366.862 54.272,366.367 54.275 C 365.872 54.277,365.696 54.324,365.976 54.377 M358.994 54.606 C 359.393 54.655,360.102 54.656,360.569 54.607 C 361.035 54.559,360.709 54.518,359.843 54.517 C 358.976 54.516,358.594 54.556,358.994 54.606 M352.700 54.834 C 353.349 54.879,354.412 54.879,355.062 54.834 C 355.711 54.789,355.180 54.751,353.881 54.751 C 352.582 54.751,352.050 54.789,352.700 54.834 M348.991 55.055 C 349.333 55.106,349.839 55.105,350.116 55.052 C 350.392 54.998,350.112 54.956,349.494 54.957 C 348.875 54.959,348.649 55.003,348.991 55.055 M342.804 55.277 C 343.083 55.331,343.488 55.329,343.703 55.273 C 343.919 55.216,343.690 55.172,343.195 55.175 C 342.700 55.177,342.524 55.223,342.804 55.277 M141.845 55.688 C 141.280 55.961,141.261 55.992,141.732 55.878 C 142.042 55.803,142.391 55.653,142.508 55.543 C 142.800 55.270,142.640 55.305,141.845 55.688 M74.691 61.304 C 74.401 61.613,74.207 61.903,74.259 61.949 C 74.311 61.995,74.589 61.743,74.877 61.388 C 75.521 60.593,75.407 60.542,74.691 61.304 M198.304 71.372 L 197.188 72.553 198.369 71.437 C 199.466 70.400,199.653 70.191,199.485 70.191 C 199.450 70.191,198.918 70.723,198.304 71.372 M223.221 81.159 C 222.683 81.684,222.674 81.710,223.161 81.331 C 224.121 80.583,224.167 80.540,224.008 80.540 C 223.923 80.540,223.569 80.818,223.221 81.159 M193.543 82.115 C 193.543 82.795,193.585 83.074,193.637 82.733 C 193.688 82.393,193.688 81.836,193.637 81.496 C 193.585 81.156,193.543 81.434,193.543 82.115 M221.892 84.252 C 221.893 84.994,221.935 85.271,221.985 84.867 C 222.035 84.462,222.034 83.855,221.983 83.517 C 221.932 83.179,221.891 83.510,221.892 84.252 M164.742 83.855 C 165.334 83.902,166.245 83.901,166.767 83.854 C 167.289 83.807,166.805 83.769,165.692 83.769 C 164.578 83.770,164.151 83.809,164.742 83.855 M193.546 85.827 C 193.547 86.569,193.589 86.846,193.639 86.441 C 193.689 86.037,193.688 85.430,193.637 85.092 C 193.585 84.754,193.544 85.084,193.546 85.827 M81.946 88.646 C 81.193 88.949,81.333 89.103,82.115 88.830 C 82.486 88.701,82.790 88.554,82.790 88.504 C 82.790 88.371,82.516 88.417,81.946 88.646 M338.211 90.439 C 338.211 91.490,338.250 91.921,338.297 91.395 C 338.345 90.869,338.345 90.008,338.297 89.483 C 338.250 88.957,338.211 89.387,338.211 90.439 M233.334 92.025 C 233.465 92.403,233.615 92.670,233.666 92.619 C 233.777 92.507,233.353 91.339,233.201 91.339 C 233.142 91.339,233.202 91.647,233.334 92.025 M305.062 96.583 C 305.062 96.622,305.391 96.951,305.793 97.314 L 306.524 97.975 305.863 97.244 C 305.247 96.563,305.062 96.410,305.062 96.583 M307.593 98.243 C 307.809 98.299,308.164 98.299,308.380 98.243 C 308.597 98.186,308.420 98.140,307.987 98.140 C 307.553 98.140,307.376 98.186,307.593 98.243 M333.057 103.993 L 332.396 104.724 333.127 104.064 C 333.809 103.448,333.962 103.262,333.788 103.262 C 333.749 103.262,333.420 103.591,333.057 103.993 M97.807 108.374 C 98.209 108.424,98.867 108.424,99.269 108.374 C 99.671 108.324,99.342 108.283,98.538 108.283 C 97.733 108.283,97.404 108.324,97.807 108.374 M281.665 110.982 C 281.665 111.020,281.994 111.349,282.396 111.713 L 283.127 112.373 282.466 111.642 C 281.850 110.961,281.665 110.808,281.665 110.982 M283.690 113.006 C 283.690 113.045,284.019 113.374,284.421 113.737 L 285.152 114.398 284.491 113.667 C 283.875 112.985,283.690 112.832,283.690 113.006 M67.704 120.304 L 66.929 121.147 67.773 120.372 C 68.558 119.650,68.720 119.460,68.548 119.460 C 68.510 119.460,68.131 119.840,67.704 120.304 M60.799 134.421 C 60.802 134.916,60.848 135.092,60.902 134.812 C 60.955 134.532,60.953 134.127,60.897 133.912 C 60.841 133.697,60.797 133.926,60.799 134.421 M60.799 137.795 C 60.802 138.290,60.848 138.466,60.902 138.186 C 60.955 137.907,60.953 137.502,60.897 137.286 C 60.841 137.071,60.797 137.300,60.799 137.795 M243.968 139.314 L 243.307 140.045 244.038 139.384 C 244.720 138.768,244.873 138.583,244.699 138.583 C 244.660 138.583,244.331 138.912,243.968 139.314 M201.189 140.045 C 201.191 140.664,201.235 140.890,201.286 140.548 C 201.338 140.206,201.337 139.700,201.283 139.423 C 201.230 139.147,201.188 139.426,201.189 140.045 M43.068 145.388 L 42.407 146.119 43.138 145.458 C 43.820 144.843,43.973 144.657,43.799 144.657 C 43.760 144.657,43.431 144.986,43.068 145.388 M226.160 146.172 C 226.751 146.219,227.662 146.218,228.185 146.171 C 228.707 146.124,228.223 146.086,227.109 146.087 C 225.996 146.087,225.568 146.126,226.160 146.172 M36.544 151.012 L 35.883 151.744 36.614 151.083 C 37.296 150.467,37.449 150.281,37.275 150.281 C 37.236 150.281,36.907 150.610,36.544 151.012 M237.627 156.517 C 237.967 156.568,238.524 156.568,238.864 156.517 C 239.204 156.465,238.926 156.423,238.245 156.423 C 237.565 156.423,237.286 156.465,237.627 156.517 M28.445 157.987 L 27.784 158.718 28.515 158.057 C 29.197 157.441,29.350 157.255,29.176 157.255 C 29.137 157.255,28.808 157.584,28.445 157.987 M342.293 182.340 L 342.295 207.087 344.657 207.098 L 347.019 207.109 344.714 207.034 L 342.409 206.959 342.350 182.276 L 342.292 157.593 342.293 182.340 M250.506 160.855 C 250.989 161.350,251.436 161.755,251.497 161.755 C 251.559 161.755,251.214 161.350,250.731 160.855 C 250.248 160.360,249.802 159.955,249.740 159.955 C 249.678 159.955,250.023 160.360,250.506 160.855 M237.402 160.570 C 237.989 160.617,238.951 160.617,239.539 160.570 C 240.127 160.524,239.646 160.486,238.470 160.486 C 237.295 160.486,236.814 160.524,237.402 160.570 M290.326 161.755 C 290.810 162.250,291.256 162.655,291.317 162.655 C 291.379 162.655,291.034 162.250,290.551 161.755 C 290.068 161.260,289.622 160.855,289.560 160.855 C 289.498 160.855,289.843 161.260,290.326 161.755 M145.332 162.767 C 146.004 163.448,146.604 164.004,146.666 164.004 C 146.728 164.004,146.229 163.448,145.557 162.767 C 144.885 162.087,144.284 161.530,144.222 161.530 C 144.160 161.530,144.660 162.087,145.332 162.767 M272.835 161.697 C 273.855 161.739,275.526 161.739,276.547 161.697 C 277.567 161.655,276.732 161.621,274.691 161.621 C 272.649 161.621,271.814 161.655,272.835 161.697 M270.519 170.866 C 270.519 175.939,270.548 178.047,270.585 175.549 C 270.621 173.052,270.621 168.901,270.585 166.326 C 270.549 163.750,270.519 165.793,270.519 170.866 M132.561 164.004 C 132.561 164.438,132.607 164.615,132.664 164.398 C 132.720 164.182,132.720 163.827,132.664 163.611 C 132.607 163.394,132.561 163.571,132.561 164.004 M381.888 185.489 L 381.890 207.087 384.589 207.097 L 387.289 207.107 384.647 207.034 L 382.005 206.960 381.945 185.426 L 381.886 163.892 381.888 185.489 M347.465 185.602 C 347.465 197.418,347.492 202.253,347.525 196.344 C 347.559 190.436,347.559 180.768,347.525 174.859 C 347.492 168.951,347.465 173.785,347.465 185.602 M168.054 168.279 C 167.609 168.422,167.585 168.459,167.942 168.459 C 168.189 168.459,168.645 168.378,168.954 168.279 C 169.399 168.136,169.423 168.099,169.066 168.099 C 168.819 168.099,168.363 168.180,168.054 168.279 M293.667 170.754 C 293.667 171.805,293.706 172.236,293.753 171.710 C 293.800 171.184,293.800 170.323,293.753 169.798 C 293.706 169.272,293.667 169.702,293.667 170.754 M104.108 172.938 C 104.388 172.991,104.793 172.989,105.008 172.933 C 105.223 172.877,104.994 172.833,104.499 172.835 C 104.004 172.838,103.829 172.884,104.108 172.938 M218.729 177.840 C 218.732 178.335,218.778 178.511,218.832 178.231 C 218.886 177.952,218.884 177.547,218.827 177.331 C 218.771 177.116,218.727 177.345,218.729 177.840 M224.358 179.978 C 224.358 180.534,224.402 180.762,224.456 180.484 C 224.509 180.205,224.509 179.750,224.456 179.471 C 224.402 179.193,224.358 179.421,224.358 179.978 M127.101 180.821 L 125.872 182.115 127.165 180.885 C 128.367 179.743,128.562 179.528,128.395 179.528 C 128.360 179.528,127.778 180.110,127.101 180.821 M218.500 180.202 C 218.500 180.636,218.546 180.813,218.603 180.596 C 218.659 180.380,218.659 180.025,218.603 179.809 C 218.546 179.592,218.500 179.769,218.500 180.202 M239.001 182.452 C 239.001 183.628,239.039 184.109,239.085 183.521 C 239.132 182.933,239.132 181.971,239.085 181.384 C 239.039 180.796,239.001 181.277,239.001 182.452 M252.748 192.238 C 252.748 198.673,252.777 201.272,252.812 198.016 C 252.847 194.759,252.847 189.495,252.812 186.317 C 252.777 183.140,252.748 185.804,252.748 192.238 M59.899 181.482 C 60.115 181.539,60.470 181.539,60.686 181.482 C 60.903 181.426,60.726 181.380,60.292 181.380 C 59.859 181.380,59.682 181.426,59.899 181.482 M54.162 181.718 C 54.812 181.764,55.875 181.764,56.524 181.718 C 57.174 181.673,56.642 181.636,55.343 181.636 C 54.044 181.636,53.512 181.673,54.162 181.718 M49.550 181.941 C 50.014 181.990,50.773 181.990,51.237 181.941 C 51.701 181.893,51.322 181.853,50.394 181.853 C 49.466 181.853,49.086 181.893,49.550 181.941 M43.254 182.164 C 43.596 182.215,44.102 182.214,44.379 182.161 C 44.655 182.107,44.376 182.065,43.757 182.067 C 43.138 182.068,42.912 182.112,43.254 182.164 M36.617 182.386 C 36.897 182.440,37.302 182.438,37.517 182.382 C 37.732 182.325,37.503 182.281,37.008 182.284 C 36.513 182.286,36.337 182.333,36.617 182.386 M25.872 182.732 C 25.872 182.825,26.504 182.890,27.278 182.876 C 28.797 182.848,28.650 182.740,26.940 182.630 C 26.353 182.592,25.872 182.638,25.872 182.732 M30.540 182.617 C 31.066 182.664,31.926 182.664,32.452 182.617 C 32.978 182.570,32.548 182.531,31.496 182.531 C 30.444 182.531,30.014 182.570,30.540 182.617 M224.354 184.589 C 224.356 185.084,224.402 185.260,224.456 184.981 C 224.510 184.701,224.508 184.296,224.452 184.081 C 224.395 183.866,224.351 184.094,224.354 184.589 M270.470 195.550 L 270.416 206.960 267.773 207.031 L 265.129 207.102 267.780 207.151 C 269.730 207.186,270.459 207.125,270.538 206.918 C 270.597 206.763,270.618 201.575,270.585 195.388 L 270.524 184.139 270.470 195.550 M247.244 193.093 L 247.356 201.687 247.415 193.265 C 247.448 188.633,247.397 184.765,247.303 184.671 C 247.209 184.576,247.182 188.366,247.244 193.093 M218.729 186.839 C 218.732 187.334,218.778 187.510,218.832 187.230 C 218.886 186.950,218.884 186.545,218.827 186.330 C 218.771 186.115,218.727 186.344,218.729 186.839 M79.190 186.347 C 79.190 186.386,79.519 186.715,79.921 187.078 L 80.652 187.739 79.992 187.008 C 79.376 186.326,79.190 186.173,79.190 186.347 M219.604 191.901 C 219.604 192.087,219.691 192.441,219.798 192.688 C 219.919 192.972,219.991 193.014,219.991 192.801 C 219.991 192.615,219.904 192.261,219.798 192.013 C 219.676 191.730,219.604 191.688,219.604 191.901 M92.407 193.635 C 92.686 193.688,93.141 193.688,93.420 193.635 C 93.698 193.581,93.470 193.537,92.913 193.537 C 92.357 193.537,92.129 193.581,92.407 193.635 M96.682 193.635 C 96.960 193.688,97.416 193.688,97.694 193.635 C 97.972 193.581,97.745 193.537,97.188 193.537 C 96.631 193.537,96.403 193.581,96.682 193.635 M229.246 199.620 C 229.246 199.659,229.575 199.988,229.978 200.352 L 230.709 201.012 230.048 200.281 C 229.432 199.600,229.246 199.447,229.246 199.620 M8.520 200.286 C 8.615 200.382,10.711 200.432,13.177 200.398 L 17.660 200.337 13.003 200.225 C 10.441 200.163,8.424 200.191,8.520 200.286 M41.774 200.618 C 43.900 200.655,47.444 200.655,49.648 200.618 C 51.852 200.582,50.112 200.551,45.782 200.551 C 41.451 200.551,39.648 200.581,41.774 200.618 M238.189 203.989 C 238.715 204.037,239.575 204.037,240.101 203.989 C 240.627 203.942,240.197 203.903,239.145 203.903 C 238.093 203.903,237.663 203.942,238.189 203.989 M298.285 207.038 C 298.383 207.134,299.719 207.185,301.256 207.149 L 304.049 207.085 301.079 206.973 C 299.445 206.912,298.188 206.941,298.285 207.038 M329.107 207.038 C 329.204 207.135,330.490 207.185,331.965 207.149 L 334.646 207.085 331.788 206.973 C 330.216 206.912,329.009 206.941,329.107 207.038 M364.567 206.974 L 361.867 207.109 364.497 207.154 C 366.059 207.181,367.184 207.108,367.267 206.974 C 367.343 206.850,367.374 206.770,367.336 206.794 C 367.298 206.819,366.052 206.900,364.567 206.974 M290.045 207.141 C 290.880 207.184,292.247 207.184,293.082 207.141 C 293.917 207.098,293.234 207.062,291.564 207.062 C 289.893 207.062,289.210 207.098,290.045 207.141 M241.451 207.804 C 241.668 207.861,242.022 207.861,242.238 207.804 C 242.455 207.748,242.278 207.701,241.845 207.701 C 241.412 207.701,241.235 207.748,241.451 207.804 " stroke="none" fill="#747474" fill-rule="evenodd"></path><path id="path4" d="M348.875 36.163 C 350.267 36.203,352.545 36.203,353.937 36.163 C 355.329 36.124,354.190 36.092,351.406 36.092 C 348.622 36.092,347.483 36.124,348.875 36.163 M63.386 38.404 C 63.664 38.458,64.120 38.458,64.398 38.404 C 64.677 38.350,64.449 38.306,63.892 38.306 C 63.335 38.306,63.107 38.350,63.386 38.404 M126.041 112.823 C 126.043 113.318,126.090 113.494,126.143 113.214 C 126.197 112.935,126.195 112.530,126.139 112.315 C 126.083 112.099,126.038 112.328,126.041 112.823 M160.803 169.117 C 161.207 169.167,161.814 169.166,162.153 169.115 C 162.491 169.063,162.160 169.022,161.417 169.024 C 160.675 169.025,160.398 169.067,160.803 169.117 M224.349 181.552 C 224.349 181.985,224.395 182.163,224.452 181.946 C 224.509 181.729,224.509 181.375,224.452 181.159 C 224.395 180.942,224.349 181.119,224.349 181.552 M47.750 181.932 C 47.967 181.989,48.321 181.989,48.538 181.932 C 48.754 181.876,48.577 181.829,48.144 181.829 C 47.711 181.829,47.534 181.876,47.750 181.932 M224.349 183.127 C 224.349 183.560,224.395 183.737,224.452 183.521 C 224.509 183.304,224.509 182.950,224.452 182.733 C 224.395 182.517,224.349 182.694,224.349 183.127 M30.540 200.618 C 31.932 200.657,34.210 200.657,35.602 200.618 C 36.994 200.578,35.855 200.546,33.071 200.546 C 30.287 200.546,29.148 200.578,30.540 200.618 M238.526 208.035 C 238.867 208.087,239.424 208.087,239.764 208.035 C 240.104 207.984,239.826 207.941,239.145 207.941 C 238.465 207.941,238.186 207.984,238.526 208.035 " stroke="none" fill="#7c7c7c" fill-rule="evenodd"></path></g></svg>